ISO-10303-21;
HEADER;
/* Generated by software containing ST-Developer
 * from STEP Tools, Inc. (www.steptools.com) 
 */

FILE_DESCRIPTION(
/* description */ (''),
/* implementation_level */ '2;1');

FILE_NAME(
/* name */ 'Servo Plate v17.step',
/* time_stamp */ '2025-04-15T18:57:57+05:30',
/* author */ (''),
/* organization */ (''),
/* preprocessor_version */ 'ST-DEVELOPER v20.1',
/* originating_system */ 'Autodesk Translation Framework v14.4.0.0',
/* authorisation */ '');

FILE_SCHEMA (('AUTOMOTIVE_DESIGN { 1 0 10303 214 3 1 1 }'));
ENDSEC;

DATA;
#10=MECHANICAL_DESIGN_GEOMETRIC_PRESENTATION_REPRESENTATION('',(#13),#1979);
#11=SHAPE_REPRESENTATION_RELATIONSHIP('SRR','None',#1986,#12);
#12=ADVANCED_BREP_SHAPE_REPRESENTATION('',(#14),#1978);
#13=STYLED_ITEM('',(#1995),#14);
#14=MANIFOLD_SOLID_BREP('Body1',#1231);
#15=FACE_BOUND('',#164,.T.);
#16=FACE_BOUND('',#165,.T.);
#17=FACE_BOUND('',#166,.T.);
#18=FACE_BOUND('',#167,.T.);
#19=FACE_BOUND('',#168,.T.);
#20=FACE_BOUND('',#169,.T.);
#21=FACE_BOUND('',#170,.T.);
#22=FACE_BOUND('',#171,.T.);
#23=FACE_BOUND('',#172,.T.);
#24=FACE_BOUND('',#173,.T.);
#25=FACE_BOUND('',#174,.T.);
#26=FACE_BOUND('',#175,.T.);
#27=FACE_BOUND('',#176,.T.);
#28=FACE_BOUND('',#177,.T.);
#29=FACE_BOUND('',#189,.T.);
#30=FACE_BOUND('',#190,.T.);
#31=FACE_BOUND('',#191,.T.);
#32=FACE_BOUND('',#192,.T.);
#33=FACE_BOUND('',#193,.T.);
#34=FACE_BOUND('',#194,.T.);
#35=FACE_BOUND('',#195,.T.);
#36=FACE_BOUND('',#196,.T.);
#37=FACE_BOUND('',#197,.T.);
#38=FACE_BOUND('',#198,.T.);
#39=FACE_BOUND('',#199,.T.);
#40=FACE_BOUND('',#200,.T.);
#41=FACE_BOUND('',#201,.T.);
#42=FACE_BOUND('',#202,.T.);
#43=CIRCLE('',#1254,1.55);
#44=CIRCLE('',#1255,1.55);
#45=CIRCLE('',#1257,1.55);
#46=CIRCLE('',#1258,1.55);
#47=CIRCLE('',#1260,1.55);
#48=CIRCLE('',#1261,1.55);
#49=CIRCLE('',#1263,1.55);
#50=CIRCLE('',#1264,1.55);
#51=CIRCLE('',#1280,2.075);
#52=CIRCLE('',#1281,2.075);
#53=CIRCLE('',#1282,2.075);
#54=CIRCLE('',#1283,2.075);
#55=CIRCLE('',#1284,2.075);
#56=CIRCLE('',#1285,2.075);
#57=CIRCLE('',#1286,2.075);
#58=CIRCLE('',#1287,2.075);
#59=CIRCLE('',#1299,2.075);
#60=CIRCLE('',#1300,2.075);
#61=CIRCLE('',#1301,2.075);
#62=CIRCLE('',#1302,2.075);
#63=CIRCLE('',#1303,2.075);
#64=CIRCLE('',#1304,2.075);
#65=CIRCLE('',#1305,2.075);
#66=CIRCLE('',#1306,2.075);
#67=CYLINDRICAL_SURFACE('',#1253,1.55);
#68=CYLINDRICAL_SURFACE('',#1256,1.55);
#69=CYLINDRICAL_SURFACE('',#1259,1.55);
#70=CYLINDRICAL_SURFACE('',#1262,1.55);
#71=CYLINDRICAL_SURFACE('',#1317,2.075);
#72=CYLINDRICAL_SURFACE('',#1318,2.075);
#73=CYLINDRICAL_SURFACE('',#1319,2.075);
#74=CYLINDRICAL_SURFACE('',#1320,2.075);
#75=CYLINDRICAL_SURFACE('',#1321,2.075);
#76=CYLINDRICAL_SURFACE('',#1322,2.075);
#77=CYLINDRICAL_SURFACE('',#1323,2.075);
#78=CYLINDRICAL_SURFACE('',#1324,2.075);
#79=FACE_OUTER_BOUND('',#137,.T.);
#80=FACE_OUTER_BOUND('',#138,.T.);
#81=FACE_OUTER_BOUND('',#139,.T.);
#82=FACE_OUTER_BOUND('',#140,.T.);
#83=FACE_OUTER_BOUND('',#141,.T.);
#84=FACE_OUTER_BOUND('',#142,.T.);
#85=FACE_OUTER_BOUND('',#143,.T.);
#86=FACE_OUTER_BOUND('',#144,.T.);
#87=FACE_OUTER_BOUND('',#145,.T.);
#88=FACE_OUTER_BOUND('',#146,.T.);
#89=FACE_OUTER_BOUND('',#147,.T.);
#90=FACE_OUTER_BOUND('',#148,.T.);
#91=FACE_OUTER_BOUND('',#149,.T.);
#92=FACE_OUTER_BOUND('',#150,.T.);
#93=FACE_OUTER_BOUND('',#151,.T.);
#94=FACE_OUTER_BOUND('',#152,.T.);
#95=FACE_OUTER_BOUND('',#153,.T.);
#96=FACE_OUTER_BOUND('',#154,.T.);
#97=FACE_OUTER_BOUND('',#155,.T.);
#98=FACE_OUTER_BOUND('',#156,.T.);
#99=FACE_OUTER_BOUND('',#157,.T.);
#100=FACE_OUTER_BOUND('',#158,.T.);
#101=FACE_OUTER_BOUND('',#159,.T.);
#102=FACE_OUTER_BOUND('',#160,.T.);
#103=FACE_OUTER_BOUND('',#161,.T.);
#104=FACE_OUTER_BOUND('',#162,.T.);
#105=FACE_OUTER_BOUND('',#163,.T.);
#106=FACE_OUTER_BOUND('',#178,.T.);
#107=FACE_OUTER_BOUND('',#179,.T.);
#108=FACE_OUTER_BOUND('',#180,.T.);
#109=FACE_OUTER_BOUND('',#181,.T.);
#110=FACE_OUTER_BOUND('',#182,.T.);
#111=FACE_OUTER_BOUND('',#183,.T.);
#112=FACE_OUTER_BOUND('',#184,.T.);
#113=FACE_OUTER_BOUND('',#185,.T.);
#114=FACE_OUTER_BOUND('',#186,.T.);
#115=FACE_OUTER_BOUND('',#187,.T.);
#116=FACE_OUTER_BOUND('',#188,.T.);
#117=FACE_OUTER_BOUND('',#203,.T.);
#118=FACE_OUTER_BOUND('',#204,.T.);
#119=FACE_OUTER_BOUND('',#205,.T.);
#120=FACE_OUTER_BOUND('',#206,.T.);
#121=FACE_OUTER_BOUND('',#207,.T.);
#122=FACE_OUTER_BOUND('',#208,.T.);
#123=FACE_OUTER_BOUND('',#209,.T.);
#124=FACE_OUTER_BOUND('',#210,.T.);
#125=FACE_OUTER_BOUND('',#211,.T.);
#126=FACE_OUTER_BOUND('',#212,.T.);
#127=FACE_OUTER_BOUND('',#213,.T.);
#128=FACE_OUTER_BOUND('',#214,.T.);
#129=FACE_OUTER_BOUND('',#215,.T.);
#130=FACE_OUTER_BOUND('',#216,.T.);
#131=FACE_OUTER_BOUND('',#217,.T.);
#132=FACE_OUTER_BOUND('',#218,.T.);
#133=FACE_OUTER_BOUND('',#219,.T.);
#134=FACE_OUTER_BOUND('',#220,.T.);
#135=FACE_OUTER_BOUND('',#221,.T.);
#136=FACE_OUTER_BOUND('',#222,.T.);
#137=EDGE_LOOP('',(#791,#792,#793,#794));
#138=EDGE_LOOP('',(#795,#796,#797,#798));
#139=EDGE_LOOP('',(#799,#800,#801,#802));
#140=EDGE_LOOP('',(#803,#804,#805,#806));
#141=EDGE_LOOP('',(#807,#808,#809,#810));
#142=EDGE_LOOP('',(#811,#812,#813,#814));
#143=EDGE_LOOP('',(#815,#816,#817,#818));
#144=EDGE_LOOP('',(#819,#820,#821,#822));
#145=EDGE_LOOP('',(#823,#824,#825,#826));
#146=EDGE_LOOP('',(#827,#828,#829,#830));
#147=EDGE_LOOP('',(#831,#832,#833,#834));
#148=EDGE_LOOP('',(#835,#836,#837,#838));
#149=EDGE_LOOP('',(#839,#840,#841,#842));
#150=EDGE_LOOP('',(#843,#844,#845,#846));
#151=EDGE_LOOP('',(#847,#848,#849,#850));
#152=EDGE_LOOP('',(#851,#852,#853,#854));
#153=EDGE_LOOP('',(#855,#856,#857,#858));
#154=EDGE_LOOP('',(#859,#860,#861,#862));
#155=EDGE_LOOP('',(#863,#864,#865,#866));
#156=EDGE_LOOP('',(#867,#868,#869,#870));
#157=EDGE_LOOP('',(#871,#872,#873,#874));
#158=EDGE_LOOP('',(#875,#876,#877,#878));
#159=EDGE_LOOP('',(#879,#880,#881,#882));
#160=EDGE_LOOP('',(#883,#884,#885,#886));
#161=EDGE_LOOP('',(#887,#888,#889,#890));
#162=EDGE_LOOP('',(#891,#892,#893,#894));
#163=EDGE_LOOP('',(#895,#896,#897,#898,#899,#900,#901,#902,#903,#904,#905,
#906,#907,#908,#909,#910,#911,#912,#913,#914,#915,#916,#917,#918,#919,#920,
#921,#922,#923,#924,#925,#926,#927,#928,#929,#930));
#164=EDGE_LOOP('',(#931));
#165=EDGE_LOOP('',(#932));
#166=EDGE_LOOP('',(#933));
#167=EDGE_LOOP('',(#934));
#168=EDGE_LOOP('',(#935,#936,#937,#938));
#169=EDGE_LOOP('',(#939));
#170=EDGE_LOOP('',(#940));
#171=EDGE_LOOP('',(#941));
#172=EDGE_LOOP('',(#942));
#173=EDGE_LOOP('',(#943));
#174=EDGE_LOOP('',(#944));
#175=EDGE_LOOP('',(#945));
#176=EDGE_LOOP('',(#946));
#177=EDGE_LOOP('',(#947,#948,#949,#950));
#178=EDGE_LOOP('',(#951,#952,#953,#954));
#179=EDGE_LOOP('',(#955,#956,#957,#958));
#180=EDGE_LOOP('',(#959,#960,#961,#962));
#181=EDGE_LOOP('',(#963,#964,#965,#966));
#182=EDGE_LOOP('',(#967,#968,#969,#970));
#183=EDGE_LOOP('',(#971,#972,#973,#974));
#184=EDGE_LOOP('',(#975,#976,#977,#978));
#185=EDGE_LOOP('',(#979,#980,#981,#982));
#186=EDGE_LOOP('',(#983,#984,#985,#986));
#187=EDGE_LOOP('',(#987,#988,#989,#990));
#188=EDGE_LOOP('',(#991,#992,#993,#994,#995,#996,#997,#998,#999,#1000,#1001,
#1002,#1003,#1004,#1005,#1006,#1007,#1008,#1009,#1010,#1011,#1012,#1013,
#1014,#1015,#1016,#1017,#1018,#1019,#1020,#1021,#1022,#1023,#1024,#1025,
#1026));
#189=EDGE_LOOP('',(#1027));
#190=EDGE_LOOP('',(#1028));
#191=EDGE_LOOP('',(#1029));
#192=EDGE_LOOP('',(#1030));
#193=EDGE_LOOP('',(#1031,#1032,#1033,#1034));
#194=EDGE_LOOP('',(#1035));
#195=EDGE_LOOP('',(#1036));
#196=EDGE_LOOP('',(#1037));
#197=EDGE_LOOP('',(#1038));
#198=EDGE_LOOP('',(#1039));
#199=EDGE_LOOP('',(#1040));
#200=EDGE_LOOP('',(#1041));
#201=EDGE_LOOP('',(#1042));
#202=EDGE_LOOP('',(#1043,#1044,#1045,#1046));
#203=EDGE_LOOP('',(#1047,#1048,#1049,#1050));
#204=EDGE_LOOP('',(#1051,#1052,#1053,#1054));
#205=EDGE_LOOP('',(#1055,#1056,#1057,#1058));
#206=EDGE_LOOP('',(#1059,#1060,#1061,#1062));
#207=EDGE_LOOP('',(#1063,#1064,#1065,#1066));
#208=EDGE_LOOP('',(#1067,#1068,#1069,#1070));
#209=EDGE_LOOP('',(#1071,#1072,#1073,#1074));
#210=EDGE_LOOP('',(#1075,#1076,#1077,#1078));
#211=EDGE_LOOP('',(#1079,#1080,#1081,#1082));
#212=EDGE_LOOP('',(#1083,#1084,#1085,#1086));
#213=EDGE_LOOP('',(#1087,#1088,#1089,#1090));
#214=EDGE_LOOP('',(#1091,#1092,#1093,#1094));
#215=EDGE_LOOP('',(#1095,#1096,#1097,#1098));
#216=EDGE_LOOP('',(#1099,#1100,#1101,#1102));
#217=EDGE_LOOP('',(#1103,#1104,#1105,#1106));
#218=EDGE_LOOP('',(#1107,#1108,#1109,#1110));
#219=EDGE_LOOP('',(#1111,#1112,#1113,#1114));
#220=EDGE_LOOP('',(#1115,#1116,#1117,#1118));
#221=EDGE_LOOP('',(#1119,#1120,#1121,#1122));
#222=EDGE_LOOP('',(#1123,#1124,#1125,#1126));
#223=LINE('',#1641,#367);
#224=LINE('',#1643,#368);
#225=LINE('',#1645,#369);
#226=LINE('',#1646,#370);
#227=LINE('',#1649,#371);
#228=LINE('',#1651,#372);
#229=LINE('',#1652,#373);
#230=LINE('',#1656,#374);
#231=LINE('',#1658,#375);
#232=LINE('',#1660,#376);
#233=LINE('',#1661,#377);
#234=LINE('',#1664,#378);
#235=LINE('',#1666,#379);
#236=LINE('',#1667,#380);
#237=LINE('',#1670,#381);
#238=LINE('',#1672,#382);
#239=LINE('',#1673,#383);
#240=LINE('',#1675,#384);
#241=LINE('',#1676,#385);
#242=LINE('',#1679,#386);
#243=LINE('',#1681,#387);
#244=LINE('',#1682,#388);
#245=LINE('',#1684,#389);
#246=LINE('',#1685,#390);
#247=LINE('',#1690,#391);
#248=LINE('',#1696,#392);
#249=LINE('',#1702,#393);
#250=LINE('',#1708,#394);
#251=LINE('',#1713,#395);
#252=LINE('',#1715,#396);
#253=LINE('',#1717,#397);
#254=LINE('',#1718,#398);
#255=LINE('',#1721,#399);
#256=LINE('',#1723,#400);
#257=LINE('',#1724,#401);
#258=LINE('',#1727,#402);
#259=LINE('',#1729,#403);
#260=LINE('',#1730,#404);
#261=LINE('',#1734,#405);
#262=LINE('',#1736,#406);
#263=LINE('',#1738,#407);
#264=LINE('',#1739,#408);
#265=LINE('',#1743,#409);
#266=LINE('',#1745,#410);
#267=LINE('',#1747,#411);
#268=LINE('',#1748,#412);
#269=LINE('',#1750,#413);
#270=LINE('',#1751,#414);
#271=LINE('',#1755,#415);
#272=LINE('',#1757,#416);
#273=LINE('',#1759,#417);
#274=LINE('',#1760,#418);
#275=LINE('',#1764,#419);
#276=LINE('',#1766,#420);
#277=LINE('',#1768,#421);
#278=LINE('',#1769,#422);
#279=LINE('',#1771,#423);
#280=LINE('',#1772,#424);
#281=LINE('',#1776,#425);
#282=LINE('',#1778,#426);
#283=LINE('',#1780,#427);
#284=LINE('',#1781,#428);
#285=LINE('',#1784,#429);
#286=LINE('',#1786,#430);
#287=LINE('',#1787,#431);
#288=LINE('',#1790,#432);
#289=LINE('',#1792,#433);
#290=LINE('',#1793,#434);
#291=LINE('',#1796,#435);
#292=LINE('',#1798,#436);
#293=LINE('',#1799,#437);
#294=LINE('',#1801,#438);
#295=LINE('',#1802,#439);
#296=LINE('',#1805,#440);
#297=LINE('',#1807,#441);
#298=LINE('',#1809,#442);
#299=LINE('',#1811,#443);
#300=LINE('',#1813,#444);
#301=LINE('',#1815,#445);
#302=LINE('',#1817,#446);
#303=LINE('',#1819,#447);
#304=LINE('',#1821,#448);
#305=LINE('',#1822,#449);
#306=LINE('',#1823,#450);
#307=LINE('',#1825,#451);
#308=LINE('',#1827,#452);
#309=LINE('',#1829,#453);
#310=LINE('',#1831,#454);
#311=LINE('',#1833,#455);
#312=LINE('',#1835,#456);
#313=LINE('',#1837,#457);
#314=LINE('',#1839,#458);
#315=LINE('',#1841,#459);
#316=LINE('',#1843,#460);
#317=LINE('',#1844,#461);
#318=LINE('',#1863,#462);
#319=LINE('',#1864,#463);
#320=LINE('',#1866,#464);
#321=LINE('',#1869,#465);
#322=LINE('',#1871,#466);
#323=LINE('',#1872,#467);
#324=LINE('',#1875,#468);
#325=LINE('',#1876,#469);
#326=LINE('',#1879,#470);
#327=LINE('',#1880,#471);
#328=LINE('',#1883,#472);
#329=LINE('',#1885,#473);
#330=LINE('',#1886,#474);
#331=LINE('',#1889,#475);
#332=LINE('',#1890,#476);
#333=LINE('',#1893,#477);
#334=LINE('',#1894,#478);
#335=LINE('',#1897,#479);
#336=LINE('',#1898,#480);
#337=LINE('',#1901,#481);
#338=LINE('',#1902,#482);
#339=LINE('',#1905,#483);
#340=LINE('',#1907,#484);
#341=LINE('',#1908,#485);
#342=LINE('',#1910,#486);
#343=LINE('',#1912,#487);
#344=LINE('',#1913,#488);
#345=LINE('',#1915,#489);
#346=LINE('',#1917,#490);
#347=LINE('',#1918,#491);
#348=LINE('',#1920,#492);
#349=LINE('',#1922,#493);
#350=LINE('',#1923,#494);
#351=LINE('',#1941,#495);
#352=LINE('',#1943,#496);
#353=LINE('',#1945,#497);
#354=LINE('',#1947,#498);
#355=LINE('',#1949,#499);
#356=LINE('',#1950,#500);
#357=LINE('',#1953,#501);
#358=LINE('',#1954,#502);
#359=LINE('',#1959,#503);
#360=LINE('',#1961,#504);
#361=LINE('',#1963,#505);
#362=LINE('',#1965,#506);
#363=LINE('',#1967,#507);
#364=LINE('',#1969,#508);
#365=LINE('',#1971,#509);
#366=LINE('',#1973,#510);
#367=VECTOR('',#1331,10.);
#368=VECTOR('',#1332,10.);
#369=VECTOR('',#1333,10.);
#370=VECTOR('',#1334,10.);
#371=VECTOR('',#1337,10.);
#372=VECTOR('',#1338,10.);
#373=VECTOR('',#1339,10.);
#374=VECTOR('',#1342,10.);
#375=VECTOR('',#1343,10.);
#376=VECTOR('',#1344,10.);
#377=VECTOR('',#1345,10.);
#378=VECTOR('',#1348,10.);
#379=VECTOR('',#1349,10.);
#380=VECTOR('',#1350,10.);
#381=VECTOR('',#1353,10.);
#382=VECTOR('',#1354,10.);
#383=VECTOR('',#1355,10.);
#384=VECTOR('',#1358,10.);
#385=VECTOR('',#1359,10.);
#386=VECTOR('',#1362,10.);
#387=VECTOR('',#1363,10.);
#388=VECTOR('',#1364,10.);
#389=VECTOR('',#1367,10.);
#390=VECTOR('',#1368,10.);
#391=VECTOR('',#1373,1.55);
#392=VECTOR('',#1380,1.55);
#393=VECTOR('',#1387,1.55);
#394=VECTOR('',#1394,1.55);
#395=VECTOR('',#1399,10.);
#396=VECTOR('',#1400,10.);
#397=VECTOR('',#1401,10.);
#398=VECTOR('',#1402,10.);
#399=VECTOR('',#1405,10.);
#400=VECTOR('',#1406,10.);
#401=VECTOR('',#1407,10.);
#402=VECTOR('',#1410,10.);
#403=VECTOR('',#1411,10.);
#404=VECTOR('',#1412,10.);
#405=VECTOR('',#1415,10.);
#406=VECTOR('',#1416,10.);
#407=VECTOR('',#1417,10.);
#408=VECTOR('',#1418,10.);
#409=VECTOR('',#1421,10.);
#410=VECTOR('',#1422,10.);
#411=VECTOR('',#1423,10.);
#412=VECTOR('',#1424,10.);
#413=VECTOR('',#1427,10.);
#414=VECTOR('',#1428,10.);
#415=VECTOR('',#1431,10.);
#416=VECTOR('',#1432,10.);
#417=VECTOR('',#1433,10.);
#418=VECTOR('',#1434,10.);
#419=VECTOR('',#1437,10.);
#420=VECTOR('',#1438,10.);
#421=VECTOR('',#1439,10.);
#422=VECTOR('',#1440,10.);
#423=VECTOR('',#1443,10.);
#424=VECTOR('',#1444,10.);
#425=VECTOR('',#1447,10.);
#426=VECTOR('',#1448,10.);
#427=VECTOR('',#1449,10.);
#428=VECTOR('',#1450,10.);
#429=VECTOR('',#1453,10.);
#430=VECTOR('',#1454,10.);
#431=VECTOR('',#1455,10.);
#432=VECTOR('',#1458,10.);
#433=VECTOR('',#1459,10.);
#434=VECTOR('',#1460,10.);
#435=VECTOR('',#1463,10.);
#436=VECTOR('',#1464,10.);
#437=VECTOR('',#1465,10.);
#438=VECTOR('',#1468,10.);
#439=VECTOR('',#1469,10.);
#440=VECTOR('',#1472,10.);
#441=VECTOR('',#1473,10.);
#442=VECTOR('',#1474,10.);
#443=VECTOR('',#1475,10.);
#444=VECTOR('',#1476,10.);
#445=VECTOR('',#1477,10.);
#446=VECTOR('',#1478,10.);
#447=VECTOR('',#1479,10.);
#448=VECTOR('',#1480,10.);
#449=VECTOR('',#1481,10.);
#450=VECTOR('',#1482,10.);
#451=VECTOR('',#1483,10.);
#452=VECTOR('',#1484,10.);
#453=VECTOR('',#1485,10.);
#454=VECTOR('',#1486,10.);
#455=VECTOR('',#1487,10.);
#456=VECTOR('',#1488,10.);
#457=VECTOR('',#1489,10.);
#458=VECTOR('',#1490,10.);
#459=VECTOR('',#1491,10.);
#460=VECTOR('',#1492,10.);
#461=VECTOR('',#1493,10.);
#462=VECTOR('',#1512,10.);
#463=VECTOR('',#1513,10.);
#464=VECTOR('',#1516,10.);
#465=VECTOR('',#1519,10.);
#466=VECTOR('',#1520,10.);
#467=VECTOR('',#1521,10.);
#468=VECTOR('',#1524,10.);
#469=VECTOR('',#1525,10.);
#470=VECTOR('',#1528,10.);
#471=VECTOR('',#1529,10.);
#472=VECTOR('',#1532,10.);
#473=VECTOR('',#1533,10.);
#474=VECTOR('',#1534,10.);
#475=VECTOR('',#1537,10.);
#476=VECTOR('',#1538,10.);
#477=VECTOR('',#1541,10.);
#478=VECTOR('',#1542,10.);
#479=VECTOR('',#1545,10.);
#480=VECTOR('',#1546,10.);
#481=VECTOR('',#1549,10.);
#482=VECTOR('',#1550,10.);
#483=VECTOR('',#1553,10.);
#484=VECTOR('',#1554,10.);
#485=VECTOR('',#1555,10.);
#486=VECTOR('',#1556,10.);
#487=VECTOR('',#1557,10.);
#488=VECTOR('',#1558,10.);
#489=VECTOR('',#1559,10.);
#490=VECTOR('',#1560,10.);
#491=VECTOR('',#1561,10.);
#492=VECTOR('',#1562,10.);
#493=VECTOR('',#1563,10.);
#494=VECTOR('',#1564,10.);
#495=VECTOR('',#1583,10.);
#496=VECTOR('',#1586,10.);
#497=VECTOR('',#1589,10.);
#498=VECTOR('',#1592,10.);
#499=VECTOR('',#1595,10.);
#500=VECTOR('',#1596,10.);
#501=VECTOR('',#1601,10.);
#502=VECTOR('',#1602,10.);
#503=VECTOR('',#1611,2.075);
#504=VECTOR('',#1614,2.075);
#505=VECTOR('',#1617,2.075);
#506=VECTOR('',#1620,2.075);
#507=VECTOR('',#1623,2.075);
#508=VECTOR('',#1626,2.075);
#509=VECTOR('',#1629,2.075);
#510=VECTOR('',#1632,2.075);
#511=VERTEX_POINT('',#1639);
#512=VERTEX_POINT('',#1640);
#513=VERTEX_POINT('',#1642);
#514=VERTEX_POINT('',#1644);
#515=VERTEX_POINT('',#1648);
#516=VERTEX_POINT('',#1650);
#517=VERTEX_POINT('',#1654);
#518=VERTEX_POINT('',#1655);
#519=VERTEX_POINT('',#1657);
#520=VERTEX_POINT('',#1659);
#521=VERTEX_POINT('',#1663);
#522=VERTEX_POINT('',#1665);
#523=VERTEX_POINT('',#1669);
#524=VERTEX_POINT('',#1671);
#525=VERTEX_POINT('',#1678);
#526=VERTEX_POINT('',#1680);
#527=VERTEX_POINT('',#1687);
#528=VERTEX_POINT('',#1689);
#529=VERTEX_POINT('',#1693);
#530=VERTEX_POINT('',#1695);
#531=VERTEX_POINT('',#1699);
#532=VERTEX_POINT('',#1701);
#533=VERTEX_POINT('',#1705);
#534=VERTEX_POINT('',#1707);
#535=VERTEX_POINT('',#1711);
#536=VERTEX_POINT('',#1712);
#537=VERTEX_POINT('',#1714);
#538=VERTEX_POINT('',#1716);
#539=VERTEX_POINT('',#1720);
#540=VERTEX_POINT('',#1722);
#541=VERTEX_POINT('',#1726);
#542=VERTEX_POINT('',#1728);
#543=VERTEX_POINT('',#1732);
#544=VERTEX_POINT('',#1733);
#545=VERTEX_POINT('',#1735);
#546=VERTEX_POINT('',#1737);
#547=VERTEX_POINT('',#1741);
#548=VERTEX_POINT('',#1742);
#549=VERTEX_POINT('',#1744);
#550=VERTEX_POINT('',#1746);
#551=VERTEX_POINT('',#1753);
#552=VERTEX_POINT('',#1754);
#553=VERTEX_POINT('',#1756);
#554=VERTEX_POINT('',#1758);
#555=VERTEX_POINT('',#1762);
#556=VERTEX_POINT('',#1763);
#557=VERTEX_POINT('',#1765);
#558=VERTEX_POINT('',#1767);
#559=VERTEX_POINT('',#1774);
#560=VERTEX_POINT('',#1775);
#561=VERTEX_POINT('',#1777);
#562=VERTEX_POINT('',#1779);
#563=VERTEX_POINT('',#1783);
#564=VERTEX_POINT('',#1785);
#565=VERTEX_POINT('',#1789);
#566=VERTEX_POINT('',#1791);
#567=VERTEX_POINT('',#1795);
#568=VERTEX_POINT('',#1797);
#569=VERTEX_POINT('',#1804);
#570=VERTEX_POINT('',#1806);
#571=VERTEX_POINT('',#1808);
#572=VERTEX_POINT('',#1810);
#573=VERTEX_POINT('',#1812);
#574=VERTEX_POINT('',#1814);
#575=VERTEX_POINT('',#1816);
#576=VERTEX_POINT('',#1818);
#577=VERTEX_POINT('',#1820);
#578=VERTEX_POINT('',#1824);
#579=VERTEX_POINT('',#1826);
#580=VERTEX_POINT('',#1828);
#581=VERTEX_POINT('',#1830);
#582=VERTEX_POINT('',#1832);
#583=VERTEX_POINT('',#1834);
#584=VERTEX_POINT('',#1836);
#585=VERTEX_POINT('',#1838);
#586=VERTEX_POINT('',#1840);
#587=VERTEX_POINT('',#1842);
#588=VERTEX_POINT('',#1845);
#589=VERTEX_POINT('',#1847);
#590=VERTEX_POINT('',#1849);
#591=VERTEX_POINT('',#1851);
#592=VERTEX_POINT('',#1853);
#593=VERTEX_POINT('',#1855);
#594=VERTEX_POINT('',#1857);
#595=VERTEX_POINT('',#1859);
#596=VERTEX_POINT('',#1862);
#597=VERTEX_POINT('',#1868);
#598=VERTEX_POINT('',#1870);
#599=VERTEX_POINT('',#1874);
#600=VERTEX_POINT('',#1878);
#601=VERTEX_POINT('',#1882);
#602=VERTEX_POINT('',#1884);
#603=VERTEX_POINT('',#1888);
#604=VERTEX_POINT('',#1892);
#605=VERTEX_POINT('',#1896);
#606=VERTEX_POINT('',#1900);
#607=VERTEX_POINT('',#1904);
#608=VERTEX_POINT('',#1906);
#609=VERTEX_POINT('',#1909);
#610=VERTEX_POINT('',#1911);
#611=VERTEX_POINT('',#1914);
#612=VERTEX_POINT('',#1916);
#613=VERTEX_POINT('',#1919);
#614=VERTEX_POINT('',#1921);
#615=VERTEX_POINT('',#1924);
#616=VERTEX_POINT('',#1926);
#617=VERTEX_POINT('',#1928);
#618=VERTEX_POINT('',#1930);
#619=VERTEX_POINT('',#1932);
#620=VERTEX_POINT('',#1934);
#621=VERTEX_POINT('',#1936);
#622=VERTEX_POINT('',#1938);
#623=EDGE_CURVE('',#511,#512,#223,.T.);
#624=EDGE_CURVE('',#513,#511,#224,.T.);
#625=EDGE_CURVE('',#514,#513,#225,.T.);
#626=EDGE_CURVE('',#512,#514,#226,.T.);
#627=EDGE_CURVE('',#515,#511,#227,.T.);
#628=EDGE_CURVE('',#515,#516,#228,.T.);
#629=EDGE_CURVE('',#513,#516,#229,.T.);
#630=EDGE_CURVE('',#517,#518,#230,.T.);
#631=EDGE_CURVE('',#519,#518,#231,.T.);
#632=EDGE_CURVE('',#520,#519,#232,.T.);
#633=EDGE_CURVE('',#517,#520,#233,.T.);
#634=EDGE_CURVE('',#521,#518,#234,.T.);
#635=EDGE_CURVE('',#521,#522,#235,.T.);
#636=EDGE_CURVE('',#519,#522,#236,.T.);
#637=EDGE_CURVE('',#515,#523,#237,.T.);
#638=EDGE_CURVE('',#524,#523,#238,.T.);
#639=EDGE_CURVE('',#516,#524,#239,.T.);
#640=EDGE_CURVE('',#524,#514,#240,.T.);
#641=EDGE_CURVE('',#512,#523,#241,.T.);
#642=EDGE_CURVE('',#525,#521,#242,.T.);
#643=EDGE_CURVE('',#526,#525,#243,.T.);
#644=EDGE_CURVE('',#522,#526,#244,.T.);
#645=EDGE_CURVE('',#526,#520,#245,.T.);
#646=EDGE_CURVE('',#517,#525,#246,.T.);
#647=EDGE_CURVE('',#527,#527,#43,.T.);
#648=EDGE_CURVE('',#527,#528,#247,.T.);
#649=EDGE_CURVE('',#528,#528,#44,.T.);
#650=EDGE_CURVE('',#529,#529,#45,.T.);
#651=EDGE_CURVE('',#529,#530,#248,.T.);
#652=EDGE_CURVE('',#530,#530,#46,.T.);
#653=EDGE_CURVE('',#531,#531,#47,.T.);
#654=EDGE_CURVE('',#531,#532,#249,.T.);
#655=EDGE_CURVE('',#532,#532,#48,.T.);
#656=EDGE_CURVE('',#533,#533,#49,.T.);
#657=EDGE_CURVE('',#533,#534,#250,.T.);
#658=EDGE_CURVE('',#534,#534,#50,.T.);
#659=EDGE_CURVE('',#535,#536,#251,.T.);
#660=EDGE_CURVE('',#537,#535,#252,.T.);
#661=EDGE_CURVE('',#538,#537,#253,.T.);
#662=EDGE_CURVE('',#538,#536,#254,.T.);
#663=EDGE_CURVE('',#536,#539,#255,.T.);
#664=EDGE_CURVE('',#540,#538,#256,.T.);
#665=EDGE_CURVE('',#539,#540,#257,.T.);
#666=EDGE_CURVE('',#541,#535,#258,.T.);
#667=EDGE_CURVE('',#542,#541,#259,.T.);
#668=EDGE_CURVE('',#537,#542,#260,.T.);
#669=EDGE_CURVE('',#543,#544,#261,.T.);
#670=EDGE_CURVE('',#545,#543,#262,.T.);
#671=EDGE_CURVE('',#546,#545,#263,.T.);
#672=EDGE_CURVE('',#544,#546,#264,.T.);
#673=EDGE_CURVE('',#547,#548,#265,.T.);
#674=EDGE_CURVE('',#549,#547,#266,.T.);
#675=EDGE_CURVE('',#550,#549,#267,.T.);
#676=EDGE_CURVE('',#550,#548,#268,.T.);
#677=EDGE_CURVE('',#548,#543,#269,.T.);
#678=EDGE_CURVE('',#545,#550,#270,.T.);
#679=EDGE_CURVE('',#551,#552,#271,.T.);
#680=EDGE_CURVE('',#553,#551,#272,.T.);
#681=EDGE_CURVE('',#554,#553,#273,.T.);
#682=EDGE_CURVE('',#552,#554,#274,.T.);
#683=EDGE_CURVE('',#555,#556,#275,.T.);
#684=EDGE_CURVE('',#557,#555,#276,.T.);
#685=EDGE_CURVE('',#558,#557,#277,.T.);
#686=EDGE_CURVE('',#558,#556,#278,.T.);
#687=EDGE_CURVE('',#556,#551,#279,.T.);
#688=EDGE_CURVE('',#553,#558,#280,.T.);
#689=EDGE_CURVE('',#559,#560,#281,.T.);
#690=EDGE_CURVE('',#561,#559,#282,.T.);
#691=EDGE_CURVE('',#562,#561,#283,.T.);
#692=EDGE_CURVE('',#562,#560,#284,.T.);
#693=EDGE_CURVE('',#560,#563,#285,.T.);
#694=EDGE_CURVE('',#564,#562,#286,.T.);
#695=EDGE_CURVE('',#563,#564,#287,.T.);
#696=EDGE_CURVE('',#565,#559,#288,.T.);
#697=EDGE_CURVE('',#566,#565,#289,.T.);
#698=EDGE_CURVE('',#561,#566,#290,.T.);
#699=EDGE_CURVE('',#567,#554,#291,.T.);
#700=EDGE_CURVE('',#567,#568,#292,.T.);
#701=EDGE_CURVE('',#568,#552,#293,.T.);
#702=EDGE_CURVE('',#557,#540,#294,.T.);
#703=EDGE_CURVE('',#555,#539,#295,.T.);
#704=EDGE_CURVE('',#568,#569,#296,.T.);
#705=EDGE_CURVE('',#569,#570,#297,.T.);
#706=EDGE_CURVE('',#571,#570,#298,.T.);
#707=EDGE_CURVE('',#571,#572,#299,.T.);
#708=EDGE_CURVE('',#572,#573,#300,.T.);
#709=EDGE_CURVE('',#573,#574,#301,.T.);
#710=EDGE_CURVE('',#575,#574,#302,.T.);
#711=EDGE_CURVE('',#575,#576,#303,.T.);
#712=EDGE_CURVE('',#576,#577,#304,.T.);
#713=EDGE_CURVE('',#547,#577,#305,.T.);
#714=EDGE_CURVE('',#565,#544,#306,.T.);
#715=EDGE_CURVE('',#578,#563,#307,.T.);
#716=EDGE_CURVE('',#578,#579,#308,.T.);
#717=EDGE_CURVE('',#579,#580,#309,.T.);
#718=EDGE_CURVE('',#581,#580,#310,.T.);
#719=EDGE_CURVE('',#581,#582,#311,.T.);
#720=EDGE_CURVE('',#582,#583,#312,.T.);
#721=EDGE_CURVE('',#583,#584,#313,.T.);
#722=EDGE_CURVE('',#585,#584,#314,.T.);
#723=EDGE_CURVE('',#585,#586,#315,.T.);
#724=EDGE_CURVE('',#586,#587,#316,.T.);
#725=EDGE_CURVE('',#541,#587,#317,.T.);
#726=EDGE_CURVE('',#588,#588,#51,.T.);
#727=EDGE_CURVE('',#589,#589,#52,.T.);
#728=EDGE_CURVE('',#590,#590,#53,.T.);
#729=EDGE_CURVE('',#591,#591,#54,.T.);
#730=EDGE_CURVE('',#592,#592,#55,.T.);
#731=EDGE_CURVE('',#593,#593,#56,.T.);
#732=EDGE_CURVE('',#594,#594,#57,.T.);
#733=EDGE_CURVE('',#595,#595,#58,.T.);
#734=EDGE_CURVE('',#596,#564,#318,.T.);
#735=EDGE_CURVE('',#596,#578,#319,.T.);
#736=EDGE_CURVE('',#566,#546,#320,.T.);
#737=EDGE_CURVE('',#597,#571,#321,.T.);
#738=EDGE_CURVE('',#598,#597,#322,.T.);
#739=EDGE_CURVE('',#598,#572,#323,.T.);
#740=EDGE_CURVE('',#599,#598,#324,.T.);
#741=EDGE_CURVE('',#599,#573,#325,.T.);
#742=EDGE_CURVE('',#600,#599,#326,.T.);
#743=EDGE_CURVE('',#574,#600,#327,.T.);
#744=EDGE_CURVE('',#601,#582,#328,.T.);
#745=EDGE_CURVE('',#602,#601,#329,.T.);
#746=EDGE_CURVE('',#602,#583,#330,.T.);
#747=EDGE_CURVE('',#603,#602,#331,.T.);
#748=EDGE_CURVE('',#584,#603,#332,.T.);
#749=EDGE_CURVE('',#604,#581,#333,.T.);
#750=EDGE_CURVE('',#601,#604,#334,.T.);
#751=EDGE_CURVE('',#605,#600,#335,.T.);
#752=EDGE_CURVE('',#605,#575,#336,.T.);
#753=EDGE_CURVE('',#606,#603,#337,.T.);
#754=EDGE_CURVE('',#606,#585,#338,.T.);
#755=EDGE_CURVE('',#542,#607,#339,.T.);
#756=EDGE_CURVE('',#607,#608,#340,.T.);
#757=EDGE_CURVE('',#608,#606,#341,.T.);
#758=EDGE_CURVE('',#604,#609,#342,.T.);
#759=EDGE_CURVE('',#609,#610,#343,.T.);
#760=EDGE_CURVE('',#610,#596,#344,.T.);
#761=EDGE_CURVE('',#549,#611,#345,.T.);
#762=EDGE_CURVE('',#611,#612,#346,.T.);
#763=EDGE_CURVE('',#612,#605,#347,.T.);
#764=EDGE_CURVE('',#597,#613,#348,.T.);
#765=EDGE_CURVE('',#613,#614,#349,.T.);
#766=EDGE_CURVE('',#614,#567,#350,.T.);
#767=EDGE_CURVE('',#615,#615,#59,.T.);
#768=EDGE_CURVE('',#616,#616,#60,.T.);
#769=EDGE_CURVE('',#617,#617,#61,.T.);
#770=EDGE_CURVE('',#618,#618,#62,.T.);
#771=EDGE_CURVE('',#619,#619,#63,.T.);
#772=EDGE_CURVE('',#620,#620,#64,.T.);
#773=EDGE_CURVE('',#621,#621,#65,.T.);
#774=EDGE_CURVE('',#622,#622,#66,.T.);
#775=EDGE_CURVE('',#569,#614,#351,.T.);
#776=EDGE_CURVE('',#570,#613,#352,.T.);
#777=EDGE_CURVE('',#579,#610,#353,.T.);
#778=EDGE_CURVE('',#580,#609,#354,.T.);
#779=EDGE_CURVE('',#577,#611,#355,.T.);
#780=EDGE_CURVE('',#576,#612,#356,.T.);
#781=EDGE_CURVE('',#587,#607,#357,.T.);
#782=EDGE_CURVE('',#586,#608,#358,.T.);
#783=EDGE_CURVE('',#622,#588,#359,.T.);
#784=EDGE_CURVE('',#621,#589,#360,.T.);
#785=EDGE_CURVE('',#620,#590,#361,.T.);
#786=EDGE_CURVE('',#619,#591,#362,.T.);
#787=EDGE_CURVE('',#618,#592,#363,.T.);
#788=EDGE_CURVE('',#617,#593,#364,.T.);
#789=EDGE_CURVE('',#616,#594,#365,.T.);
#790=EDGE_CURVE('',#615,#595,#366,.T.);
#791=ORIENTED_EDGE('',*,*,#623,.F.);
#792=ORIENTED_EDGE('',*,*,#624,.F.);
#793=ORIENTED_EDGE('',*,*,#625,.F.);
#794=ORIENTED_EDGE('',*,*,#626,.F.);
#795=ORIENTED_EDGE('',*,*,#624,.T.);
#796=ORIENTED_EDGE('',*,*,#627,.F.);
#797=ORIENTED_EDGE('',*,*,#628,.T.);
#798=ORIENTED_EDGE('',*,*,#629,.F.);
#799=ORIENTED_EDGE('',*,*,#630,.T.);
#800=ORIENTED_EDGE('',*,*,#631,.F.);
#801=ORIENTED_EDGE('',*,*,#632,.F.);
#802=ORIENTED_EDGE('',*,*,#633,.F.);
#803=ORIENTED_EDGE('',*,*,#631,.T.);
#804=ORIENTED_EDGE('',*,*,#634,.F.);
#805=ORIENTED_EDGE('',*,*,#635,.T.);
#806=ORIENTED_EDGE('',*,*,#636,.F.);
#807=ORIENTED_EDGE('',*,*,#637,.T.);
#808=ORIENTED_EDGE('',*,*,#638,.F.);
#809=ORIENTED_EDGE('',*,*,#639,.F.);
#810=ORIENTED_EDGE('',*,*,#628,.F.);
#811=ORIENTED_EDGE('',*,*,#626,.T.);
#812=ORIENTED_EDGE('',*,*,#640,.F.);
#813=ORIENTED_EDGE('',*,*,#638,.T.);
#814=ORIENTED_EDGE('',*,*,#641,.F.);
#815=ORIENTED_EDGE('',*,*,#642,.F.);
#816=ORIENTED_EDGE('',*,*,#643,.F.);
#817=ORIENTED_EDGE('',*,*,#644,.F.);
#818=ORIENTED_EDGE('',*,*,#635,.F.);
#819=ORIENTED_EDGE('',*,*,#633,.T.);
#820=ORIENTED_EDGE('',*,*,#645,.F.);
#821=ORIENTED_EDGE('',*,*,#643,.T.);
#822=ORIENTED_EDGE('',*,*,#646,.F.);
#823=ORIENTED_EDGE('',*,*,#647,.F.);
#824=ORIENTED_EDGE('',*,*,#648,.T.);
#825=ORIENTED_EDGE('',*,*,#649,.F.);
#826=ORIENTED_EDGE('',*,*,#648,.F.);
#827=ORIENTED_EDGE('',*,*,#650,.F.);
#828=ORIENTED_EDGE('',*,*,#651,.T.);
#829=ORIENTED_EDGE('',*,*,#652,.F.);
#830=ORIENTED_EDGE('',*,*,#651,.F.);
#831=ORIENTED_EDGE('',*,*,#653,.F.);
#832=ORIENTED_EDGE('',*,*,#654,.T.);
#833=ORIENTED_EDGE('',*,*,#655,.F.);
#834=ORIENTED_EDGE('',*,*,#654,.F.);
#835=ORIENTED_EDGE('',*,*,#656,.F.);
#836=ORIENTED_EDGE('',*,*,#657,.T.);
#837=ORIENTED_EDGE('',*,*,#658,.F.);
#838=ORIENTED_EDGE('',*,*,#657,.F.);
#839=ORIENTED_EDGE('',*,*,#659,.F.);
#840=ORIENTED_EDGE('',*,*,#660,.F.);
#841=ORIENTED_EDGE('',*,*,#661,.F.);
#842=ORIENTED_EDGE('',*,*,#662,.T.);
#843=ORIENTED_EDGE('',*,*,#663,.F.);
#844=ORIENTED_EDGE('',*,*,#662,.F.);
#845=ORIENTED_EDGE('',*,*,#664,.F.);
#846=ORIENTED_EDGE('',*,*,#665,.F.);
#847=ORIENTED_EDGE('',*,*,#666,.F.);
#848=ORIENTED_EDGE('',*,*,#667,.F.);
#849=ORIENTED_EDGE('',*,*,#668,.F.);
#850=ORIENTED_EDGE('',*,*,#660,.T.);
#851=ORIENTED_EDGE('',*,*,#669,.F.);
#852=ORIENTED_EDGE('',*,*,#670,.F.);
#853=ORIENTED_EDGE('',*,*,#671,.F.);
#854=ORIENTED_EDGE('',*,*,#672,.F.);
#855=ORIENTED_EDGE('',*,*,#673,.F.);
#856=ORIENTED_EDGE('',*,*,#674,.F.);
#857=ORIENTED_EDGE('',*,*,#675,.F.);
#858=ORIENTED_EDGE('',*,*,#676,.T.);
#859=ORIENTED_EDGE('',*,*,#677,.F.);
#860=ORIENTED_EDGE('',*,*,#676,.F.);
#861=ORIENTED_EDGE('',*,*,#678,.F.);
#862=ORIENTED_EDGE('',*,*,#670,.T.);
#863=ORIENTED_EDGE('',*,*,#679,.F.);
#864=ORIENTED_EDGE('',*,*,#680,.F.);
#865=ORIENTED_EDGE('',*,*,#681,.F.);
#866=ORIENTED_EDGE('',*,*,#682,.F.);
#867=ORIENTED_EDGE('',*,*,#683,.F.);
#868=ORIENTED_EDGE('',*,*,#684,.F.);
#869=ORIENTED_EDGE('',*,*,#685,.F.);
#870=ORIENTED_EDGE('',*,*,#686,.T.);
#871=ORIENTED_EDGE('',*,*,#687,.F.);
#872=ORIENTED_EDGE('',*,*,#686,.F.);
#873=ORIENTED_EDGE('',*,*,#688,.F.);
#874=ORIENTED_EDGE('',*,*,#680,.T.);
#875=ORIENTED_EDGE('',*,*,#689,.F.);
#876=ORIENTED_EDGE('',*,*,#690,.F.);
#877=ORIENTED_EDGE('',*,*,#691,.F.);
#878=ORIENTED_EDGE('',*,*,#692,.T.);
#879=ORIENTED_EDGE('',*,*,#693,.F.);
#880=ORIENTED_EDGE('',*,*,#692,.F.);
#881=ORIENTED_EDGE('',*,*,#694,.F.);
#882=ORIENTED_EDGE('',*,*,#695,.F.);
#883=ORIENTED_EDGE('',*,*,#696,.F.);
#884=ORIENTED_EDGE('',*,*,#697,.F.);
#885=ORIENTED_EDGE('',*,*,#698,.F.);
#886=ORIENTED_EDGE('',*,*,#690,.T.);
#887=ORIENTED_EDGE('',*,*,#682,.T.);
#888=ORIENTED_EDGE('',*,*,#699,.F.);
#889=ORIENTED_EDGE('',*,*,#700,.T.);
#890=ORIENTED_EDGE('',*,*,#701,.T.);
#891=ORIENTED_EDGE('',*,*,#665,.T.);
#892=ORIENTED_EDGE('',*,*,#702,.F.);
#893=ORIENTED_EDGE('',*,*,#684,.T.);
#894=ORIENTED_EDGE('',*,*,#703,.T.);
#895=ORIENTED_EDGE('',*,*,#666,.T.);
#896=ORIENTED_EDGE('',*,*,#659,.T.);
#897=ORIENTED_EDGE('',*,*,#663,.T.);
#898=ORIENTED_EDGE('',*,*,#703,.F.);
#899=ORIENTED_EDGE('',*,*,#683,.T.);
#900=ORIENTED_EDGE('',*,*,#687,.T.);
#901=ORIENTED_EDGE('',*,*,#679,.T.);
#902=ORIENTED_EDGE('',*,*,#701,.F.);
#903=ORIENTED_EDGE('',*,*,#704,.T.);
#904=ORIENTED_EDGE('',*,*,#705,.T.);
#905=ORIENTED_EDGE('',*,*,#706,.F.);
#906=ORIENTED_EDGE('',*,*,#707,.T.);
#907=ORIENTED_EDGE('',*,*,#708,.T.);
#908=ORIENTED_EDGE('',*,*,#709,.T.);
#909=ORIENTED_EDGE('',*,*,#710,.F.);
#910=ORIENTED_EDGE('',*,*,#711,.T.);
#911=ORIENTED_EDGE('',*,*,#712,.T.);
#912=ORIENTED_EDGE('',*,*,#713,.F.);
#913=ORIENTED_EDGE('',*,*,#673,.T.);
#914=ORIENTED_EDGE('',*,*,#677,.T.);
#915=ORIENTED_EDGE('',*,*,#669,.T.);
#916=ORIENTED_EDGE('',*,*,#714,.F.);
#917=ORIENTED_EDGE('',*,*,#696,.T.);
#918=ORIENTED_EDGE('',*,*,#689,.T.);
#919=ORIENTED_EDGE('',*,*,#693,.T.);
#920=ORIENTED_EDGE('',*,*,#715,.F.);
#921=ORIENTED_EDGE('',*,*,#716,.T.);
#922=ORIENTED_EDGE('',*,*,#717,.T.);
#923=ORIENTED_EDGE('',*,*,#718,.F.);
#924=ORIENTED_EDGE('',*,*,#719,.T.);
#925=ORIENTED_EDGE('',*,*,#720,.T.);
#926=ORIENTED_EDGE('',*,*,#721,.T.);
#927=ORIENTED_EDGE('',*,*,#722,.F.);
#928=ORIENTED_EDGE('',*,*,#723,.T.);
#929=ORIENTED_EDGE('',*,*,#724,.T.);
#930=ORIENTED_EDGE('',*,*,#725,.F.);
#931=ORIENTED_EDGE('',*,*,#649,.T.);
#932=ORIENTED_EDGE('',*,*,#652,.T.);
#933=ORIENTED_EDGE('',*,*,#655,.T.);
#934=ORIENTED_EDGE('',*,*,#658,.T.);
#935=ORIENTED_EDGE('',*,*,#629,.T.);
#936=ORIENTED_EDGE('',*,*,#639,.T.);
#937=ORIENTED_EDGE('',*,*,#640,.T.);
#938=ORIENTED_EDGE('',*,*,#625,.T.);
#939=ORIENTED_EDGE('',*,*,#726,.F.);
#940=ORIENTED_EDGE('',*,*,#727,.F.);
#941=ORIENTED_EDGE('',*,*,#728,.F.);
#942=ORIENTED_EDGE('',*,*,#729,.F.);
#943=ORIENTED_EDGE('',*,*,#730,.F.);
#944=ORIENTED_EDGE('',*,*,#731,.F.);
#945=ORIENTED_EDGE('',*,*,#732,.F.);
#946=ORIENTED_EDGE('',*,*,#733,.F.);
#947=ORIENTED_EDGE('',*,*,#645,.T.);
#948=ORIENTED_EDGE('',*,*,#632,.T.);
#949=ORIENTED_EDGE('',*,*,#636,.T.);
#950=ORIENTED_EDGE('',*,*,#644,.T.);
#951=ORIENTED_EDGE('',*,*,#695,.T.);
#952=ORIENTED_EDGE('',*,*,#734,.F.);
#953=ORIENTED_EDGE('',*,*,#735,.T.);
#954=ORIENTED_EDGE('',*,*,#715,.T.);
#955=ORIENTED_EDGE('',*,*,#672,.T.);
#956=ORIENTED_EDGE('',*,*,#736,.F.);
#957=ORIENTED_EDGE('',*,*,#697,.T.);
#958=ORIENTED_EDGE('',*,*,#714,.T.);
#959=ORIENTED_EDGE('',*,*,#707,.F.);
#960=ORIENTED_EDGE('',*,*,#737,.F.);
#961=ORIENTED_EDGE('',*,*,#738,.F.);
#962=ORIENTED_EDGE('',*,*,#739,.T.);
#963=ORIENTED_EDGE('',*,*,#708,.F.);
#964=ORIENTED_EDGE('',*,*,#739,.F.);
#965=ORIENTED_EDGE('',*,*,#740,.F.);
#966=ORIENTED_EDGE('',*,*,#741,.T.);
#967=ORIENTED_EDGE('',*,*,#709,.F.);
#968=ORIENTED_EDGE('',*,*,#741,.F.);
#969=ORIENTED_EDGE('',*,*,#742,.F.);
#970=ORIENTED_EDGE('',*,*,#743,.F.);
#971=ORIENTED_EDGE('',*,*,#720,.F.);
#972=ORIENTED_EDGE('',*,*,#744,.F.);
#973=ORIENTED_EDGE('',*,*,#745,.F.);
#974=ORIENTED_EDGE('',*,*,#746,.T.);
#975=ORIENTED_EDGE('',*,*,#721,.F.);
#976=ORIENTED_EDGE('',*,*,#746,.F.);
#977=ORIENTED_EDGE('',*,*,#747,.F.);
#978=ORIENTED_EDGE('',*,*,#748,.F.);
#979=ORIENTED_EDGE('',*,*,#719,.F.);
#980=ORIENTED_EDGE('',*,*,#749,.F.);
#981=ORIENTED_EDGE('',*,*,#750,.F.);
#982=ORIENTED_EDGE('',*,*,#744,.T.);
#983=ORIENTED_EDGE('',*,*,#743,.T.);
#984=ORIENTED_EDGE('',*,*,#751,.F.);
#985=ORIENTED_EDGE('',*,*,#752,.T.);
#986=ORIENTED_EDGE('',*,*,#710,.T.);
#987=ORIENTED_EDGE('',*,*,#748,.T.);
#988=ORIENTED_EDGE('',*,*,#753,.F.);
#989=ORIENTED_EDGE('',*,*,#754,.T.);
#990=ORIENTED_EDGE('',*,*,#722,.T.);
#991=ORIENTED_EDGE('',*,*,#668,.T.);
#992=ORIENTED_EDGE('',*,*,#755,.T.);
#993=ORIENTED_EDGE('',*,*,#756,.T.);
#994=ORIENTED_EDGE('',*,*,#757,.T.);
#995=ORIENTED_EDGE('',*,*,#753,.T.);
#996=ORIENTED_EDGE('',*,*,#747,.T.);
#997=ORIENTED_EDGE('',*,*,#745,.T.);
#998=ORIENTED_EDGE('',*,*,#750,.T.);
#999=ORIENTED_EDGE('',*,*,#758,.T.);
#1000=ORIENTED_EDGE('',*,*,#759,.T.);
#1001=ORIENTED_EDGE('',*,*,#760,.T.);
#1002=ORIENTED_EDGE('',*,*,#734,.T.);
#1003=ORIENTED_EDGE('',*,*,#694,.T.);
#1004=ORIENTED_EDGE('',*,*,#691,.T.);
#1005=ORIENTED_EDGE('',*,*,#698,.T.);
#1006=ORIENTED_EDGE('',*,*,#736,.T.);
#1007=ORIENTED_EDGE('',*,*,#671,.T.);
#1008=ORIENTED_EDGE('',*,*,#678,.T.);
#1009=ORIENTED_EDGE('',*,*,#675,.T.);
#1010=ORIENTED_EDGE('',*,*,#761,.T.);
#1011=ORIENTED_EDGE('',*,*,#762,.T.);
#1012=ORIENTED_EDGE('',*,*,#763,.T.);
#1013=ORIENTED_EDGE('',*,*,#751,.T.);
#1014=ORIENTED_EDGE('',*,*,#742,.T.);
#1015=ORIENTED_EDGE('',*,*,#740,.T.);
#1016=ORIENTED_EDGE('',*,*,#738,.T.);
#1017=ORIENTED_EDGE('',*,*,#764,.T.);
#1018=ORIENTED_EDGE('',*,*,#765,.T.);
#1019=ORIENTED_EDGE('',*,*,#766,.T.);
#1020=ORIENTED_EDGE('',*,*,#699,.T.);
#1021=ORIENTED_EDGE('',*,*,#681,.T.);
#1022=ORIENTED_EDGE('',*,*,#688,.T.);
#1023=ORIENTED_EDGE('',*,*,#685,.T.);
#1024=ORIENTED_EDGE('',*,*,#702,.T.);
#1025=ORIENTED_EDGE('',*,*,#664,.T.);
#1026=ORIENTED_EDGE('',*,*,#661,.T.);
#1027=ORIENTED_EDGE('',*,*,#647,.T.);
#1028=ORIENTED_EDGE('',*,*,#650,.T.);
#1029=ORIENTED_EDGE('',*,*,#653,.T.);
#1030=ORIENTED_EDGE('',*,*,#656,.T.);
#1031=ORIENTED_EDGE('',*,*,#623,.T.);
#1032=ORIENTED_EDGE('',*,*,#641,.T.);
#1033=ORIENTED_EDGE('',*,*,#637,.F.);
#1034=ORIENTED_EDGE('',*,*,#627,.T.);
#1035=ORIENTED_EDGE('',*,*,#767,.T.);
#1036=ORIENTED_EDGE('',*,*,#768,.T.);
#1037=ORIENTED_EDGE('',*,*,#769,.T.);
#1038=ORIENTED_EDGE('',*,*,#770,.T.);
#1039=ORIENTED_EDGE('',*,*,#771,.T.);
#1040=ORIENTED_EDGE('',*,*,#772,.T.);
#1041=ORIENTED_EDGE('',*,*,#773,.T.);
#1042=ORIENTED_EDGE('',*,*,#774,.T.);
#1043=ORIENTED_EDGE('',*,*,#642,.T.);
#1044=ORIENTED_EDGE('',*,*,#634,.T.);
#1045=ORIENTED_EDGE('',*,*,#630,.F.);
#1046=ORIENTED_EDGE('',*,*,#646,.T.);
#1047=ORIENTED_EDGE('',*,*,#766,.F.);
#1048=ORIENTED_EDGE('',*,*,#775,.F.);
#1049=ORIENTED_EDGE('',*,*,#704,.F.);
#1050=ORIENTED_EDGE('',*,*,#700,.F.);
#1051=ORIENTED_EDGE('',*,*,#765,.F.);
#1052=ORIENTED_EDGE('',*,*,#776,.F.);
#1053=ORIENTED_EDGE('',*,*,#705,.F.);
#1054=ORIENTED_EDGE('',*,*,#775,.T.);
#1055=ORIENTED_EDGE('',*,*,#760,.F.);
#1056=ORIENTED_EDGE('',*,*,#777,.F.);
#1057=ORIENTED_EDGE('',*,*,#716,.F.);
#1058=ORIENTED_EDGE('',*,*,#735,.F.);
#1059=ORIENTED_EDGE('',*,*,#759,.F.);
#1060=ORIENTED_EDGE('',*,*,#778,.F.);
#1061=ORIENTED_EDGE('',*,*,#717,.F.);
#1062=ORIENTED_EDGE('',*,*,#777,.T.);
#1063=ORIENTED_EDGE('',*,*,#762,.F.);
#1064=ORIENTED_EDGE('',*,*,#779,.F.);
#1065=ORIENTED_EDGE('',*,*,#712,.F.);
#1066=ORIENTED_EDGE('',*,*,#780,.T.);
#1067=ORIENTED_EDGE('',*,*,#763,.F.);
#1068=ORIENTED_EDGE('',*,*,#780,.F.);
#1069=ORIENTED_EDGE('',*,*,#711,.F.);
#1070=ORIENTED_EDGE('',*,*,#752,.F.);
#1071=ORIENTED_EDGE('',*,*,#756,.F.);
#1072=ORIENTED_EDGE('',*,*,#781,.F.);
#1073=ORIENTED_EDGE('',*,*,#724,.F.);
#1074=ORIENTED_EDGE('',*,*,#782,.T.);
#1075=ORIENTED_EDGE('',*,*,#757,.F.);
#1076=ORIENTED_EDGE('',*,*,#782,.F.);
#1077=ORIENTED_EDGE('',*,*,#723,.F.);
#1078=ORIENTED_EDGE('',*,*,#754,.F.);
#1079=ORIENTED_EDGE('',*,*,#674,.T.);
#1080=ORIENTED_EDGE('',*,*,#713,.T.);
#1081=ORIENTED_EDGE('',*,*,#779,.T.);
#1082=ORIENTED_EDGE('',*,*,#761,.F.);
#1083=ORIENTED_EDGE('',*,*,#749,.T.);
#1084=ORIENTED_EDGE('',*,*,#718,.T.);
#1085=ORIENTED_EDGE('',*,*,#778,.T.);
#1086=ORIENTED_EDGE('',*,*,#758,.F.);
#1087=ORIENTED_EDGE('',*,*,#774,.F.);
#1088=ORIENTED_EDGE('',*,*,#783,.T.);
#1089=ORIENTED_EDGE('',*,*,#726,.T.);
#1090=ORIENTED_EDGE('',*,*,#783,.F.);
#1091=ORIENTED_EDGE('',*,*,#773,.F.);
#1092=ORIENTED_EDGE('',*,*,#784,.T.);
#1093=ORIENTED_EDGE('',*,*,#727,.T.);
#1094=ORIENTED_EDGE('',*,*,#784,.F.);
#1095=ORIENTED_EDGE('',*,*,#772,.F.);
#1096=ORIENTED_EDGE('',*,*,#785,.T.);
#1097=ORIENTED_EDGE('',*,*,#728,.T.);
#1098=ORIENTED_EDGE('',*,*,#785,.F.);
#1099=ORIENTED_EDGE('',*,*,#771,.F.);
#1100=ORIENTED_EDGE('',*,*,#786,.T.);
#1101=ORIENTED_EDGE('',*,*,#729,.T.);
#1102=ORIENTED_EDGE('',*,*,#786,.F.);
#1103=ORIENTED_EDGE('',*,*,#770,.F.);
#1104=ORIENTED_EDGE('',*,*,#787,.T.);
#1105=ORIENTED_EDGE('',*,*,#730,.T.);
#1106=ORIENTED_EDGE('',*,*,#787,.F.);
#1107=ORIENTED_EDGE('',*,*,#769,.F.);
#1108=ORIENTED_EDGE('',*,*,#788,.T.);
#1109=ORIENTED_EDGE('',*,*,#731,.T.);
#1110=ORIENTED_EDGE('',*,*,#788,.F.);
#1111=ORIENTED_EDGE('',*,*,#768,.F.);
#1112=ORIENTED_EDGE('',*,*,#789,.T.);
#1113=ORIENTED_EDGE('',*,*,#732,.T.);
#1114=ORIENTED_EDGE('',*,*,#789,.F.);
#1115=ORIENTED_EDGE('',*,*,#767,.F.);
#1116=ORIENTED_EDGE('',*,*,#790,.T.);
#1117=ORIENTED_EDGE('',*,*,#733,.T.);
#1118=ORIENTED_EDGE('',*,*,#790,.F.);
#1119=ORIENTED_EDGE('',*,*,#737,.T.);
#1120=ORIENTED_EDGE('',*,*,#706,.T.);
#1121=ORIENTED_EDGE('',*,*,#776,.T.);
#1122=ORIENTED_EDGE('',*,*,#764,.F.);
#1123=ORIENTED_EDGE('',*,*,#667,.T.);
#1124=ORIENTED_EDGE('',*,*,#725,.T.);
#1125=ORIENTED_EDGE('',*,*,#781,.T.);
#1126=ORIENTED_EDGE('',*,*,#755,.F.);
#1127=PLANE('',#1245);
#1128=PLANE('',#1246);
#1129=PLANE('',#1247);
#1130=PLANE('',#1248);
#1131=PLANE('',#1249);
#1132=PLANE('',#1250);
#1133=PLANE('',#1251);
#1134=PLANE('',#1252);
#1135=PLANE('',#1265);
#1136=PLANE('',#1266);
#1137=PLANE('',#1267);
#1138=PLANE('',#1268);
#1139=PLANE('',#1269);
#1140=PLANE('',#1270);
#1141=PLANE('',#1271);
#1142=PLANE('',#1272);
#1143=PLANE('',#1273);
#1144=PLANE('',#1274);
#1145=PLANE('',#1275);
#1146=PLANE('',#1276);
#1147=PLANE('',#1277);
#1148=PLANE('',#1278);
#1149=PLANE('',#1279);
#1150=PLANE('',#1288);
#1151=PLANE('',#1289);
#1152=PLANE('',#1290);
#1153=PLANE('',#1291);
#1154=PLANE('',#1292);
#1155=PLANE('',#1293);
#1156=PLANE('',#1294);
#1157=PLANE('',#1295);
#1158=PLANE('',#1296);
#1159=PLANE('',#1297);
#1160=PLANE('',#1298);
#1161=PLANE('',#1307);
#1162=PLANE('',#1308);
#1163=PLANE('',#1309);
#1164=PLANE('',#1310);
#1165=PLANE('',#1311);
#1166=PLANE('',#1312);
#1167=PLANE('',#1313);
#1168=PLANE('',#1314);
#1169=PLANE('',#1315);
#1170=PLANE('',#1316);
#1171=PLANE('',#1325);
#1172=PLANE('',#1326);
#1173=ADVANCED_FACE('',(#79),#1127,.T.);
#1174=ADVANCED_FACE('',(#80),#1128,.F.);
#1175=ADVANCED_FACE('',(#81),#1129,.T.);
#1176=ADVANCED_FACE('',(#82),#1130,.F.);
#1177=ADVANCED_FACE('',(#83),#1131,.T.);
#1178=ADVANCED_FACE('',(#84),#1132,.F.);
#1179=ADVANCED_FACE('',(#85),#1133,.T.);
#1180=ADVANCED_FACE('',(#86),#1134,.F.);
#1181=ADVANCED_FACE('',(#87),#67,.F.);
#1182=ADVANCED_FACE('',(#88),#68,.F.);
#1183=ADVANCED_FACE('',(#89),#69,.F.);
#1184=ADVANCED_FACE('',(#90),#70,.F.);
#1185=ADVANCED_FACE('',(#91),#1135,.F.);
#1186=ADVANCED_FACE('',(#92),#1136,.F.);
#1187=ADVANCED_FACE('',(#93),#1137,.F.);
#1188=ADVANCED_FACE('',(#94),#1138,.F.);
#1189=ADVANCED_FACE('',(#95),#1139,.F.);
#1190=ADVANCED_FACE('',(#96),#1140,.F.);
#1191=ADVANCED_FACE('',(#97),#1141,.F.);
#1192=ADVANCED_FACE('',(#98),#1142,.F.);
#1193=ADVANCED_FACE('',(#99),#1143,.F.);
#1194=ADVANCED_FACE('',(#100),#1144,.F.);
#1195=ADVANCED_FACE('',(#101),#1145,.F.);
#1196=ADVANCED_FACE('',(#102),#1146,.F.);
#1197=ADVANCED_FACE('',(#103),#1147,.T.);
#1198=ADVANCED_FACE('',(#104),#1148,.T.);
#1199=ADVANCED_FACE('',(#105,#15,#16,#17,#18,#19,#20,#21,#22,#23,#24,#25,
#26,#27,#28),#1149,.F.);
#1200=ADVANCED_FACE('',(#106),#1150,.T.);
#1201=ADVANCED_FACE('',(#107),#1151,.T.);
#1202=ADVANCED_FACE('',(#108),#1152,.F.);
#1203=ADVANCED_FACE('',(#109),#1153,.F.);
#1204=ADVANCED_FACE('',(#110),#1154,.F.);
#1205=ADVANCED_FACE('',(#111),#1155,.F.);
#1206=ADVANCED_FACE('',(#112),#1156,.F.);
#1207=ADVANCED_FACE('',(#113),#1157,.F.);
#1208=ADVANCED_FACE('',(#114),#1158,.T.);
#1209=ADVANCED_FACE('',(#115),#1159,.T.);
#1210=ADVANCED_FACE('',(#116,#29,#30,#31,#32,#33,#34,#35,#36,#37,#38,#39,
#40,#41,#42),#1160,.T.);
#1211=ADVANCED_FACE('',(#117),#1161,.F.);
#1212=ADVANCED_FACE('',(#118),#1162,.F.);
#1213=ADVANCED_FACE('',(#119),#1163,.F.);
#1214=ADVANCED_FACE('',(#120),#1164,.F.);
#1215=ADVANCED_FACE('',(#121),#1165,.F.);
#1216=ADVANCED_FACE('',(#122),#1166,.F.);
#1217=ADVANCED_FACE('',(#123),#1167,.F.);
#1218=ADVANCED_FACE('',(#124),#1168,.F.);
#1219=ADVANCED_FACE('',(#125),#1169,.T.);
#1220=ADVANCED_FACE('',(#126),#1170,.T.);
#1221=ADVANCED_FACE('',(#127),#71,.F.);
#1222=ADVANCED_FACE('',(#128),#72,.F.);
#1223=ADVANCED_FACE('',(#129),#73,.F.);
#1224=ADVANCED_FACE('',(#130),#74,.F.);
#1225=ADVANCED_FACE('',(#131),#75,.F.);
#1226=ADVANCED_FACE('',(#132),#76,.F.);
#1227=ADVANCED_FACE('',(#133),#77,.F.);
#1228=ADVANCED_FACE('',(#134),#78,.F.);
#1229=ADVANCED_FACE('',(#135),#1171,.T.);
#1230=ADVANCED_FACE('',(#136),#1172,.T.);
#1231=CLOSED_SHELL('',(#1173,#1174,#1175,#1176,#1177,#1178,#1179,#1180,
#1181,#1182,#1183,#1184,#1185,#1186,#1187,#1188,#1189,#1190,#1191,#1192,
#1193,#1194,#1195,#1196,#1197,#1198,#1199,#1200,#1201,#1202,#1203,#1204,
#1205,#1206,#1207,#1208,#1209,#1210,#1211,#1212,#1213,#1214,#1215,#1216,
#1217,#1218,#1219,#1220,#1221,#1222,#1223,#1224,#1225,#1226,#1227,#1228,
#1229,#1230));
#1232=DERIVED_UNIT_ELEMENT(#1234,1.);
#1233=DERIVED_UNIT_ELEMENT(#1981,-3.);
#1234=(
MASS_UNIT()
NAMED_UNIT(*)
SI_UNIT(.KILO.,.GRAM.)
);
#1235=DERIVED_UNIT((#1232,#1233));
#1236=MEASURE_REPRESENTATION_ITEM('density measure',
POSITIVE_RATIO_MEASURE(7850.),#1235);
#1237=PROPERTY_DEFINITION_REPRESENTATION(#1242,#1239);
#1238=PROPERTY_DEFINITION_REPRESENTATION(#1243,#1240);
#1239=REPRESENTATION('material name',(#1241),#1978);
#1240=REPRESENTATION('density',(#1236),#1978);
#1241=DESCRIPTIVE_REPRESENTATION_ITEM('Steel','Steel');
#1242=PROPERTY_DEFINITION('material property','material name',#1988);
#1243=PROPERTY_DEFINITION('material property','density of part',#1988);
#1244=AXIS2_PLACEMENT_3D('',#1637,#1327,#1328);
#1245=AXIS2_PLACEMENT_3D('',#1638,#1329,#1330);
#1246=AXIS2_PLACEMENT_3D('',#1647,#1335,#1336);
#1247=AXIS2_PLACEMENT_3D('',#1653,#1340,#1341);
#1248=AXIS2_PLACEMENT_3D('',#1662,#1346,#1347);
#1249=AXIS2_PLACEMENT_3D('',#1668,#1351,#1352);
#1250=AXIS2_PLACEMENT_3D('',#1674,#1356,#1357);
#1251=AXIS2_PLACEMENT_3D('',#1677,#1360,#1361);
#1252=AXIS2_PLACEMENT_3D('',#1683,#1365,#1366);
#1253=AXIS2_PLACEMENT_3D('',#1686,#1369,#1370);
#1254=AXIS2_PLACEMENT_3D('',#1688,#1371,#1372);
#1255=AXIS2_PLACEMENT_3D('',#1691,#1374,#1375);
#1256=AXIS2_PLACEMENT_3D('',#1692,#1376,#1377);
#1257=AXIS2_PLACEMENT_3D('',#1694,#1378,#1379);
#1258=AXIS2_PLACEMENT_3D('',#1697,#1381,#1382);
#1259=AXIS2_PLACEMENT_3D('',#1698,#1383,#1384);
#1260=AXIS2_PLACEMENT_3D('',#1700,#1385,#1386);
#1261=AXIS2_PLACEMENT_3D('',#1703,#1388,#1389);
#1262=AXIS2_PLACEMENT_3D('',#1704,#1390,#1391);
#1263=AXIS2_PLACEMENT_3D('',#1706,#1392,#1393);
#1264=AXIS2_PLACEMENT_3D('',#1709,#1395,#1396);
#1265=AXIS2_PLACEMENT_3D('',#1710,#1397,#1398);
#1266=AXIS2_PLACEMENT_3D('',#1719,#1403,#1404);
#1267=AXIS2_PLACEMENT_3D('',#1725,#1408,#1409);
#1268=AXIS2_PLACEMENT_3D('',#1731,#1413,#1414);
#1269=AXIS2_PLACEMENT_3D('',#1740,#1419,#1420);
#1270=AXIS2_PLACEMENT_3D('',#1749,#1425,#1426);
#1271=AXIS2_PLACEMENT_3D('',#1752,#1429,#1430);
#1272=AXIS2_PLACEMENT_3D('',#1761,#1435,#1436);
#1273=AXIS2_PLACEMENT_3D('',#1770,#1441,#1442);
#1274=AXIS2_PLACEMENT_3D('',#1773,#1445,#1446);
#1275=AXIS2_PLACEMENT_3D('',#1782,#1451,#1452);
#1276=AXIS2_PLACEMENT_3D('',#1788,#1456,#1457);
#1277=AXIS2_PLACEMENT_3D('',#1794,#1461,#1462);
#1278=AXIS2_PLACEMENT_3D('',#1800,#1466,#1467);
#1279=AXIS2_PLACEMENT_3D('',#1803,#1470,#1471);
#1280=AXIS2_PLACEMENT_3D('',#1846,#1494,#1495);
#1281=AXIS2_PLACEMENT_3D('',#1848,#1496,#1497);
#1282=AXIS2_PLACEMENT_3D('',#1850,#1498,#1499);
#1283=AXIS2_PLACEMENT_3D('',#1852,#1500,#1501);
#1284=AXIS2_PLACEMENT_3D('',#1854,#1502,#1503);
#1285=AXIS2_PLACEMENT_3D('',#1856,#1504,#1505);
#1286=AXIS2_PLACEMENT_3D('',#1858,#1506,#1507);
#1287=AXIS2_PLACEMENT_3D('',#1860,#1508,#1509);
#1288=AXIS2_PLACEMENT_3D('',#1861,#1510,#1511);
#1289=AXIS2_PLACEMENT_3D('',#1865,#1514,#1515);
#1290=AXIS2_PLACEMENT_3D('',#1867,#1517,#1518);
#1291=AXIS2_PLACEMENT_3D('',#1873,#1522,#1523);
#1292=AXIS2_PLACEMENT_3D('',#1877,#1526,#1527);
#1293=AXIS2_PLACEMENT_3D('',#1881,#1530,#1531);
#1294=AXIS2_PLACEMENT_3D('',#1887,#1535,#1536);
#1295=AXIS2_PLACEMENT_3D('',#1891,#1539,#1540);
#1296=AXIS2_PLACEMENT_3D('',#1895,#1543,#1544);
#1297=AXIS2_PLACEMENT_3D('',#1899,#1547,#1548);
#1298=AXIS2_PLACEMENT_3D('',#1903,#1551,#1552);
#1299=AXIS2_PLACEMENT_3D('',#1925,#1565,#1566);
#1300=AXIS2_PLACEMENT_3D('',#1927,#1567,#1568);
#1301=AXIS2_PLACEMENT_3D('',#1929,#1569,#1570);
#1302=AXIS2_PLACEMENT_3D('',#1931,#1571,#1572);
#1303=AXIS2_PLACEMENT_3D('',#1933,#1573,#1574);
#1304=AXIS2_PLACEMENT_3D('',#1935,#1575,#1576);
#1305=AXIS2_PLACEMENT_3D('',#1937,#1577,#1578);
#1306=AXIS2_PLACEMENT_3D('',#1939,#1579,#1580);
#1307=AXIS2_PLACEMENT_3D('',#1940,#1581,#1582);
#1308=AXIS2_PLACEMENT_3D('',#1942,#1584,#1585);
#1309=AXIS2_PLACEMENT_3D('',#1944,#1587,#1588);
#1310=AXIS2_PLACEMENT_3D('',#1946,#1590,#1591);
#1311=AXIS2_PLACEMENT_3D('',#1948,#1593,#1594);
#1312=AXIS2_PLACEMENT_3D('',#1951,#1597,#1598);
#1313=AXIS2_PLACEMENT_3D('',#1952,#1599,#1600);
#1314=AXIS2_PLACEMENT_3D('',#1955,#1603,#1604);
#1315=AXIS2_PLACEMENT_3D('',#1956,#1605,#1606);
#1316=AXIS2_PLACEMENT_3D('',#1957,#1607,#1608);
#1317=AXIS2_PLACEMENT_3D('',#1958,#1609,#1610);
#1318=AXIS2_PLACEMENT_3D('',#1960,#1612,#1613);
#1319=AXIS2_PLACEMENT_3D('',#1962,#1615,#1616);
#1320=AXIS2_PLACEMENT_3D('',#1964,#1618,#1619);
#1321=AXIS2_PLACEMENT_3D('',#1966,#1621,#1622);
#1322=AXIS2_PLACEMENT_3D('',#1968,#1624,#1625);
#1323=AXIS2_PLACEMENT_3D('',#1970,#1627,#1628);
#1324=AXIS2_PLACEMENT_3D('',#1972,#1630,#1631);
#1325=AXIS2_PLACEMENT_3D('',#1974,#1633,#1634);
#1326=AXIS2_PLACEMENT_3D('',#1975,#1635,#1636);
#1327=DIRECTION('axis',(0.,0.,1.));
#1328=DIRECTION('refdir',(1.,0.,0.));
#1329=DIRECTION('center_axis',(0.,1.,0.));
#1330=DIRECTION('ref_axis',(0.,0.,-1.));
#1331=DIRECTION('',(0.,0.,1.));
#1332=DIRECTION('',(1.,0.,0.));
#1333=DIRECTION('',(0.,0.,-1.));
#1334=DIRECTION('',(-1.,0.,0.));
#1335=DIRECTION('center_axis',(0.,0.,-1.));
#1336=DIRECTION('ref_axis',(0.,1.,0.));
#1337=DIRECTION('',(0.,-1.,0.));
#1338=DIRECTION('',(-1.,0.,0.));
#1339=DIRECTION('',(0.,1.,0.));
#1340=DIRECTION('center_axis',(0.,-1.,0.));
#1341=DIRECTION('ref_axis',(0.,0.,1.));
#1342=DIRECTION('',(0.,0.,1.));
#1343=DIRECTION('',(1.,0.,0.));
#1344=DIRECTION('',(0.,0.,1.));
#1345=DIRECTION('',(-1.,0.,0.));
#1346=DIRECTION('center_axis',(0.,0.,1.));
#1347=DIRECTION('ref_axis',(0.,-1.,0.));
#1348=DIRECTION('',(0.,1.,0.));
#1349=DIRECTION('',(-1.,0.,0.));
#1350=DIRECTION('',(0.,-1.,0.));
#1351=DIRECTION('center_axis',(0.,-1.,0.));
#1352=DIRECTION('ref_axis',(0.,0.,1.));
#1353=DIRECTION('',(0.,0.,1.));
#1354=DIRECTION('',(1.,0.,0.));
#1355=DIRECTION('',(0.,0.,1.));
#1356=DIRECTION('center_axis',(0.,0.,1.));
#1357=DIRECTION('ref_axis',(0.,1.,0.));
#1358=DIRECTION('',(0.,-1.,0.));
#1359=DIRECTION('',(0.,1.,0.));
#1360=DIRECTION('center_axis',(0.,1.,0.));
#1361=DIRECTION('ref_axis',(0.,0.,-1.));
#1362=DIRECTION('',(0.,0.,1.));
#1363=DIRECTION('',(1.,0.,0.));
#1364=DIRECTION('',(0.,0.,-1.));
#1365=DIRECTION('center_axis',(0.,0.,-1.));
#1366=DIRECTION('ref_axis',(0.,1.,0.));
#1367=DIRECTION('',(0.,1.,0.));
#1368=DIRECTION('',(0.,-1.,0.));
#1369=DIRECTION('center_axis',(-1.,0.,0.));
#1370=DIRECTION('ref_axis',(0.,1.,0.));
#1371=DIRECTION('center_axis',(-1.,0.,0.));
#1372=DIRECTION('ref_axis',(0.,1.,0.));
#1373=DIRECTION('',(-1.,0.,0.));
#1374=DIRECTION('center_axis',(1.,0.,0.));
#1375=DIRECTION('ref_axis',(0.,1.,0.));
#1376=DIRECTION('center_axis',(-1.,0.,0.));
#1377=DIRECTION('ref_axis',(0.,1.,0.));
#1378=DIRECTION('center_axis',(-1.,0.,0.));
#1379=DIRECTION('ref_axis',(0.,1.,0.));
#1380=DIRECTION('',(-1.,0.,0.));
#1381=DIRECTION('center_axis',(1.,0.,0.));
#1382=DIRECTION('ref_axis',(0.,1.,0.));
#1383=DIRECTION('center_axis',(-1.,0.,0.));
#1384=DIRECTION('ref_axis',(0.,1.,0.));
#1385=DIRECTION('center_axis',(-1.,0.,0.));
#1386=DIRECTION('ref_axis',(0.,1.,0.));
#1387=DIRECTION('',(-1.,0.,0.));
#1388=DIRECTION('center_axis',(1.,0.,0.));
#1389=DIRECTION('ref_axis',(0.,1.,0.));
#1390=DIRECTION('center_axis',(-1.,0.,0.));
#1391=DIRECTION('ref_axis',(0.,1.,0.));
#1392=DIRECTION('center_axis',(-1.,0.,0.));
#1393=DIRECTION('ref_axis',(0.,1.,0.));
#1394=DIRECTION('',(-1.,0.,0.));
#1395=DIRECTION('center_axis',(1.,0.,0.));
#1396=DIRECTION('ref_axis',(0.,1.,0.));
#1397=DIRECTION('center_axis',(0.,1.,0.));
#1398=DIRECTION('ref_axis',(0.,0.,-1.));
#1399=DIRECTION('',(0.,0.,1.));
#1400=DIRECTION('',(-1.,0.,0.));
#1401=DIRECTION('',(0.,0.,-1.));
#1402=DIRECTION('',(-1.,0.,0.));
#1403=DIRECTION('center_axis',(0.,0.,1.));
#1404=DIRECTION('ref_axis',(0.,1.,0.));
#1405=DIRECTION('',(0.,-1.,0.));
#1406=DIRECTION('',(0.,1.,0.));
#1407=DIRECTION('',(1.,0.,0.));
#1408=DIRECTION('center_axis',(0.,0.,-1.));
#1409=DIRECTION('ref_axis',(0.,-1.,0.));
#1410=DIRECTION('',(0.,1.,0.));
#1411=DIRECTION('',(-1.,0.,0.));
#1412=DIRECTION('',(0.,-1.,0.));
#1413=DIRECTION('center_axis',(0.,0.,-1.));
#1414=DIRECTION('ref_axis',(0.,-1.,0.));
#1415=DIRECTION('',(0.,1.,0.));
#1416=DIRECTION('',(-1.,0.,0.));
#1417=DIRECTION('',(0.,-1.,0.));
#1418=DIRECTION('',(1.,0.,0.));
#1419=DIRECTION('center_axis',(0.,0.,1.));
#1420=DIRECTION('ref_axis',(0.,1.,0.));
#1421=DIRECTION('',(0.,-1.,0.));
#1422=DIRECTION('',(-1.,0.,0.));
#1423=DIRECTION('',(0.,1.,0.));
#1424=DIRECTION('',(-1.,0.,0.));
#1425=DIRECTION('center_axis',(0.,-1.,0.));
#1426=DIRECTION('ref_axis',(0.,0.,1.));
#1427=DIRECTION('',(0.,0.,-1.));
#1428=DIRECTION('',(0.,0.,1.));
#1429=DIRECTION('center_axis',(0.,0.,1.));
#1430=DIRECTION('ref_axis',(0.,1.,0.));
#1431=DIRECTION('',(0.,-1.,0.));
#1432=DIRECTION('',(-1.,0.,0.));
#1433=DIRECTION('',(0.,1.,0.));
#1434=DIRECTION('',(1.,0.,0.));
#1435=DIRECTION('center_axis',(0.,0.,-1.));
#1436=DIRECTION('ref_axis',(0.,-1.,0.));
#1437=DIRECTION('',(0.,1.,0.));
#1438=DIRECTION('',(-1.,0.,0.));
#1439=DIRECTION('',(0.,-1.,0.));
#1440=DIRECTION('',(-1.,0.,0.));
#1441=DIRECTION('center_axis',(0.,1.,0.));
#1442=DIRECTION('ref_axis',(0.,0.,-1.));
#1443=DIRECTION('',(0.,0.,1.));
#1444=DIRECTION('',(0.,0.,-1.));
#1445=DIRECTION('center_axis',(0.,-1.,0.));
#1446=DIRECTION('ref_axis',(0.,0.,1.));
#1447=DIRECTION('',(0.,0.,-1.));
#1448=DIRECTION('',(-1.,0.,0.));
#1449=DIRECTION('',(0.,0.,1.));
#1450=DIRECTION('',(-1.,0.,0.));
#1451=DIRECTION('center_axis',(0.,0.,-1.));
#1452=DIRECTION('ref_axis',(0.,-1.,0.));
#1453=DIRECTION('',(0.,1.,0.));
#1454=DIRECTION('',(0.,-1.,0.));
#1455=DIRECTION('',(1.,0.,0.));
#1456=DIRECTION('center_axis',(0.,0.,1.));
#1457=DIRECTION('ref_axis',(0.,1.,0.));
#1458=DIRECTION('',(0.,-1.,0.));
#1459=DIRECTION('',(-1.,0.,0.));
#1460=DIRECTION('',(0.,1.,0.));
#1461=DIRECTION('center_axis',(0.,-1.,-1.54074395550979E-33));
#1462=DIRECTION('ref_axis',(0.,1.54074395550979E-33,-1.));
#1463=DIRECTION('',(0.,1.54074395550979E-33,-1.));
#1464=DIRECTION('',(-1.,0.,0.));
#1465=DIRECTION('',(0.,1.54074395550979E-33,-1.));
#1466=DIRECTION('center_axis',(0.,-1.,-1.54074395550979E-33));
#1467=DIRECTION('ref_axis',(0.,1.54074395550979E-33,-1.));
#1468=DIRECTION('',(0.,1.54074395550979E-33,-1.));
#1469=DIRECTION('',(0.,1.54074395550979E-33,-1.));
#1470=DIRECTION('center_axis',(1.,0.,0.));
#1471=DIRECTION('ref_axis',(0.,1.,0.));
#1472=DIRECTION('',(0.,1.,0.));
#1473=DIRECTION('',(0.,0.,1.));
#1474=DIRECTION('',(0.,-1.,0.));
#1475=DIRECTION('',(0.,0.,-1.));
#1476=DIRECTION('',(0.,1.,0.));
#1477=DIRECTION('',(0.,0.,1.));
#1478=DIRECTION('',(0.,-1.,0.));
#1479=DIRECTION('',(0.,0.,-1.));
#1480=DIRECTION('',(0.,1.,0.));
#1481=DIRECTION('',(0.,0.,1.));
#1482=DIRECTION('',(0.,0.,1.));
#1483=DIRECTION('',(0.,0.,1.));
#1484=DIRECTION('',(0.,-1.,0.));
#1485=DIRECTION('',(0.,0.,-1.));
#1486=DIRECTION('',(0.,1.,0.));
#1487=DIRECTION('',(0.,0.,1.));
#1488=DIRECTION('',(0.,-1.,0.));
#1489=DIRECTION('',(0.,0.,-1.));
#1490=DIRECTION('',(0.,1.,0.));
#1491=DIRECTION('',(0.,0.,1.));
#1492=DIRECTION('',(0.,-1.,0.));
#1493=DIRECTION('',(0.,1.54074395550979E-33,-1.));
#1494=DIRECTION('center_axis',(-1.,0.,0.));
#1495=DIRECTION('ref_axis',(0.,1.,0.));
#1496=DIRECTION('center_axis',(-1.,0.,0.));
#1497=DIRECTION('ref_axis',(0.,1.,0.));
#1498=DIRECTION('center_axis',(-1.,0.,0.));
#1499=DIRECTION('ref_axis',(0.,1.,0.));
#1500=DIRECTION('center_axis',(-1.,0.,0.));
#1501=DIRECTION('ref_axis',(0.,1.,0.));
#1502=DIRECTION('center_axis',(-1.,0.,0.));
#1503=DIRECTION('ref_axis',(0.,1.,0.));
#1504=DIRECTION('center_axis',(-1.,0.,0.));
#1505=DIRECTION('ref_axis',(0.,1.,0.));
#1506=DIRECTION('center_axis',(-1.,0.,0.));
#1507=DIRECTION('ref_axis',(0.,1.,0.));
#1508=DIRECTION('center_axis',(-1.,0.,0.));
#1509=DIRECTION('ref_axis',(0.,1.,0.));
#1510=DIRECTION('center_axis',(0.,1.,0.));
#1511=DIRECTION('ref_axis',(0.,0.,1.));
#1512=DIRECTION('',(0.,0.,1.));
#1513=DIRECTION('',(-1.,0.,0.));
#1514=DIRECTION('center_axis',(0.,1.,0.));
#1515=DIRECTION('ref_axis',(0.,0.,1.));
#1516=DIRECTION('',(0.,0.,1.));
#1517=DIRECTION('center_axis',(0.,-1.,0.));
#1518=DIRECTION('ref_axis',(0.,0.,1.));
#1519=DIRECTION('',(-1.,0.,0.));
#1520=DIRECTION('',(0.,0.,1.));
#1521=DIRECTION('',(-1.,0.,0.));
#1522=DIRECTION('center_axis',(0.,0.,-1.));
#1523=DIRECTION('ref_axis',(0.,-1.,0.));
#1524=DIRECTION('',(0.,-1.,0.));
#1525=DIRECTION('',(-1.,0.,0.));
#1526=DIRECTION('center_axis',(0.,1.,0.));
#1527=DIRECTION('ref_axis',(0.,0.,-1.));
#1528=DIRECTION('',(0.,0.,-1.));
#1529=DIRECTION('',(1.,0.,0.));
#1530=DIRECTION('center_axis',(0.,0.,1.));
#1531=DIRECTION('ref_axis',(0.,1.,0.));
#1532=DIRECTION('',(-1.,0.,0.));
#1533=DIRECTION('',(0.,1.,0.));
#1534=DIRECTION('',(-1.,0.,0.));
#1535=DIRECTION('center_axis',(0.,-1.,0.));
#1536=DIRECTION('ref_axis',(0.,0.,1.));
#1537=DIRECTION('',(0.,0.,1.));
#1538=DIRECTION('',(1.,0.,0.));
#1539=DIRECTION('center_axis',(0.,1.,0.));
#1540=DIRECTION('ref_axis',(0.,0.,-1.));
#1541=DIRECTION('',(-1.,0.,0.));
#1542=DIRECTION('',(0.,0.,-1.));
#1543=DIRECTION('center_axis',(0.,0.,1.));
#1544=DIRECTION('ref_axis',(0.,-1.,0.));
#1545=DIRECTION('',(0.,-1.,0.));
#1546=DIRECTION('',(-1.,0.,0.));
#1547=DIRECTION('center_axis',(0.,0.,-1.));
#1548=DIRECTION('ref_axis',(0.,1.,0.));
#1549=DIRECTION('',(0.,1.,0.));
#1550=DIRECTION('',(-1.,0.,0.));
#1551=DIRECTION('center_axis',(1.,0.,0.));
#1552=DIRECTION('ref_axis',(0.,1.,0.));
#1553=DIRECTION('',(0.,1.54074395550979E-33,-1.));
#1554=DIRECTION('',(0.,1.,0.));
#1555=DIRECTION('',(0.,0.,-1.));
#1556=DIRECTION('',(0.,1.,0.));
#1557=DIRECTION('',(0.,0.,1.));
#1558=DIRECTION('',(0.,1.,0.));
#1559=DIRECTION('',(0.,0.,1.));
#1560=DIRECTION('',(0.,-1.,0.));
#1561=DIRECTION('',(0.,0.,1.));
#1562=DIRECTION('',(0.,-1.,0.));
#1563=DIRECTION('',(0.,0.,-1.));
#1564=DIRECTION('',(0.,-1.,0.));
#1565=DIRECTION('center_axis',(-1.,0.,0.));
#1566=DIRECTION('ref_axis',(0.,1.,0.));
#1567=DIRECTION('center_axis',(-1.,0.,0.));
#1568=DIRECTION('ref_axis',(0.,1.,0.));
#1569=DIRECTION('center_axis',(-1.,0.,0.));
#1570=DIRECTION('ref_axis',(0.,1.,0.));
#1571=DIRECTION('center_axis',(-1.,0.,0.));
#1572=DIRECTION('ref_axis',(0.,1.,0.));
#1573=DIRECTION('center_axis',(-1.,0.,0.));
#1574=DIRECTION('ref_axis',(0.,1.,0.));
#1575=DIRECTION('center_axis',(-1.,0.,0.));
#1576=DIRECTION('ref_axis',(0.,1.,0.));
#1577=DIRECTION('center_axis',(-1.,0.,0.));
#1578=DIRECTION('ref_axis',(0.,1.,0.));
#1579=DIRECTION('center_axis',(-1.,0.,0.));
#1580=DIRECTION('ref_axis',(0.,1.,0.));
#1581=DIRECTION('center_axis',(0.,0.,-1.));
#1582=DIRECTION('ref_axis',(0.,1.,0.));
#1583=DIRECTION('',(1.,0.,0.));
#1584=DIRECTION('center_axis',(0.,1.,0.));
#1585=DIRECTION('ref_axis',(0.,0.,1.));
#1586=DIRECTION('',(1.,0.,0.));
#1587=DIRECTION('center_axis',(0.,0.,1.));
#1588=DIRECTION('ref_axis',(0.,-1.,0.));
#1589=DIRECTION('',(1.,0.,0.));
#1590=DIRECTION('center_axis',(0.,-1.,0.));
#1591=DIRECTION('ref_axis',(0.,0.,-1.));
#1592=DIRECTION('',(1.,0.,0.));
#1593=DIRECTION('center_axis',(0.,0.,-1.));
#1594=DIRECTION('ref_axis',(0.,1.,0.));
#1595=DIRECTION('',(1.,0.,0.));
#1596=DIRECTION('',(1.,0.,0.));
#1597=DIRECTION('center_axis',(0.,-1.,0.));
#1598=DIRECTION('ref_axis',(0.,0.,-1.));
#1599=DIRECTION('center_axis',(0.,0.,1.));
#1600=DIRECTION('ref_axis',(0.,-1.,0.));
#1601=DIRECTION('',(1.,0.,0.));
#1602=DIRECTION('',(1.,0.,0.));
#1603=DIRECTION('center_axis',(0.,1.,0.));
#1604=DIRECTION('ref_axis',(0.,0.,1.));
#1605=DIRECTION('center_axis',(0.,1.,0.));
#1606=DIRECTION('ref_axis',(0.,0.,1.));
#1607=DIRECTION('center_axis',(0.,0.,-1.));
#1608=DIRECTION('ref_axis',(0.,1.,0.));
#1609=DIRECTION('center_axis',(1.,0.,0.));
#1610=DIRECTION('ref_axis',(0.,1.,0.));
#1611=DIRECTION('',(-1.,0.,0.));
#1612=DIRECTION('center_axis',(1.,0.,0.));
#1613=DIRECTION('ref_axis',(0.,1.,0.));
#1614=DIRECTION('',(-1.,0.,0.));
#1615=DIRECTION('center_axis',(1.,0.,0.));
#1616=DIRECTION('ref_axis',(0.,1.,0.));
#1617=DIRECTION('',(-1.,0.,0.));
#1618=DIRECTION('center_axis',(1.,0.,0.));
#1619=DIRECTION('ref_axis',(0.,1.,0.));
#1620=DIRECTION('',(-1.,0.,0.));
#1621=DIRECTION('center_axis',(1.,0.,0.));
#1622=DIRECTION('ref_axis',(0.,1.,0.));
#1623=DIRECTION('',(-1.,0.,0.));
#1624=DIRECTION('center_axis',(1.,0.,0.));
#1625=DIRECTION('ref_axis',(0.,1.,0.));
#1626=DIRECTION('',(-1.,0.,0.));
#1627=DIRECTION('center_axis',(1.,0.,0.));
#1628=DIRECTION('ref_axis',(0.,1.,0.));
#1629=DIRECTION('',(-1.,0.,0.));
#1630=DIRECTION('center_axis',(1.,0.,0.));
#1631=DIRECTION('ref_axis',(0.,1.,0.));
#1632=DIRECTION('',(-1.,0.,0.));
#1633=DIRECTION('center_axis',(0.,0.,1.));
#1634=DIRECTION('ref_axis',(0.,-1.,0.));
#1635=DIRECTION('center_axis',(0.,-1.,-1.54074395550979E-33));
#1636=DIRECTION('ref_axis',(0.,1.54074395550979E-33,-1.));
#1637=CARTESIAN_POINT('',(0.,0.,0.));
#1638=CARTESIAN_POINT('Origin',(5.,9.3,60.75));
#1639=CARTESIAN_POINT('',(5.,9.3,19.25));
#1640=CARTESIAN_POINT('',(5.,9.3,60.75));
#1641=CARTESIAN_POINT('',(5.,9.3,19.25));
#1642=CARTESIAN_POINT('',(0.,9.3,19.25));
#1643=CARTESIAN_POINT('',(2.5,9.3,19.25));
#1644=CARTESIAN_POINT('',(0.,9.3,60.75));
#1645=CARTESIAN_POINT('',(0.,9.3,19.25));
#1646=CARTESIAN_POINT('',(5.,9.3,60.75));
#1647=CARTESIAN_POINT('Origin',(0.,8.99999999999999,19.25));
#1648=CARTESIAN_POINT('',(5.,29.7,19.25));
#1649=CARTESIAN_POINT('',(5.,24.5,19.25));
#1650=CARTESIAN_POINT('',(0.,29.7,19.25));
#1651=CARTESIAN_POINT('',(2.5,29.7,19.25));
#1652=CARTESIAN_POINT('',(0.,24.5,19.25));
#1653=CARTESIAN_POINT('Origin',(5.,70.7,19.25));
#1654=CARTESIAN_POINT('',(5.,70.7,19.25));
#1655=CARTESIAN_POINT('',(5.,70.7,60.75));
#1656=CARTESIAN_POINT('',(5.,70.7,19.25));
#1657=CARTESIAN_POINT('',(0.,70.7,60.75));
#1658=CARTESIAN_POINT('',(2.5,70.7,60.75));
#1659=CARTESIAN_POINT('',(0.,70.7,19.25));
#1660=CARTESIAN_POINT('',(0.,70.7,19.25));
#1661=CARTESIAN_POINT('',(2.5,70.7,19.25));
#1662=CARTESIAN_POINT('Origin',(0.,71.,60.75));
#1663=CARTESIAN_POINT('',(5.,50.3,60.75));
#1664=CARTESIAN_POINT('',(5.,55.5,60.75));
#1665=CARTESIAN_POINT('',(0.,50.3,60.75));
#1666=CARTESIAN_POINT('',(2.5,50.3,60.75));
#1667=CARTESIAN_POINT('',(0.,55.5,60.75));
#1668=CARTESIAN_POINT('Origin',(5.,29.7,19.25));
#1669=CARTESIAN_POINT('',(5.,29.7,60.75));
#1670=CARTESIAN_POINT('',(5.,29.7,19.25));
#1671=CARTESIAN_POINT('',(0.,29.7,60.75));
#1672=CARTESIAN_POINT('',(5.,29.7,60.75));
#1673=CARTESIAN_POINT('',(0.,29.7,19.25));
#1674=CARTESIAN_POINT('Origin',(5.,9.,60.75));
#1675=CARTESIAN_POINT('',(0.,24.5,60.75));
#1676=CARTESIAN_POINT('',(5.,24.5,60.75));
#1677=CARTESIAN_POINT('Origin',(5.,50.3,60.75));
#1678=CARTESIAN_POINT('',(5.,50.3,19.25));
#1679=CARTESIAN_POINT('',(5.,50.3,19.25));
#1680=CARTESIAN_POINT('',(0.,50.3,19.25));
#1681=CARTESIAN_POINT('',(2.5,50.3,19.25));
#1682=CARTESIAN_POINT('',(0.,50.3,19.25));
#1683=CARTESIAN_POINT('Origin',(0.,50.,19.25));
#1684=CARTESIAN_POINT('',(0.,45.,19.25));
#1685=CARTESIAN_POINT('',(5.,45.,19.25));
#1686=CARTESIAN_POINT('Origin',(5.,52.0000007748604,70.0000011324883));
#1687=CARTESIAN_POINT('',(5.,50.4500007748604,70.0000011324883));
#1688=CARTESIAN_POINT('Origin',(5.,52.0000007748604,70.0000011324883));
#1689=CARTESIAN_POINT('',(0.,50.4500007748604,70.0000011324883));
#1690=CARTESIAN_POINT('',(5.,50.4500007748604,70.0000011324883));
#1691=CARTESIAN_POINT('Origin',(0.,52.0000007748604,70.0000011324883));
#1692=CARTESIAN_POINT('Origin',(5.,28.0000004172325,10.0000000596046));
#1693=CARTESIAN_POINT('',(5.,26.4500004172325,10.0000000596046));
#1694=CARTESIAN_POINT('Origin',(5.,28.0000004172325,10.0000000596046));
#1695=CARTESIAN_POINT('',(0.,26.4500004172325,10.0000000596046));
#1696=CARTESIAN_POINT('',(5.,26.4500004172325,10.0000000596046));
#1697=CARTESIAN_POINT('Origin',(0.,28.0000004172325,10.0000000596046));
#1698=CARTESIAN_POINT('Origin',(5.,28.,70.));
#1699=CARTESIAN_POINT('',(5.,26.45,70.));
#1700=CARTESIAN_POINT('Origin',(5.,28.,70.));
#1701=CARTESIAN_POINT('',(0.,26.45,70.));
#1702=CARTESIAN_POINT('',(5.,26.45,70.));
#1703=CARTESIAN_POINT('Origin',(0.,28.,70.));
#1704=CARTESIAN_POINT('Origin',(5.,52.0000007748604,10.0000000596046));
#1705=CARTESIAN_POINT('',(5.,50.4500007748604,10.0000000596046));
#1706=CARTESIAN_POINT('Origin',(5.,52.0000007748604,10.0000000596046));
#1707=CARTESIAN_POINT('',(0.,50.4500007748604,10.0000000596046));
#1708=CARTESIAN_POINT('',(5.,50.4500007748604,10.0000000596046));
#1709=CARTESIAN_POINT('Origin',(0.,52.0000007748604,10.0000000596046));
#1710=CARTESIAN_POINT('Origin',(5.,5.00000007450581,31.9999992847443));
#1711=CARTESIAN_POINT('',(0.,5.00000007450581,15.9999992847443));
#1712=CARTESIAN_POINT('',(0.,5.00000007450581,31.9999992847443));
#1713=CARTESIAN_POINT('',(0.,5.00000007450581,35.9999996423721));
#1714=CARTESIAN_POINT('',(5.,5.00000007450581,15.9999992847443));
#1715=CARTESIAN_POINT('',(5.,5.00000007450581,15.9999992847443));
#1716=CARTESIAN_POINT('',(5.,5.00000007450581,31.9999992847443));
#1717=CARTESIAN_POINT('',(5.,5.00000007450581,35.9999996423721));
#1718=CARTESIAN_POINT('',(5.,5.00000007450581,31.9999992847443));
#1719=CARTESIAN_POINT('Origin',(5.,0.,31.9999992847443));
#1720=CARTESIAN_POINT('',(0.,0.,31.9999992847443));
#1721=CARTESIAN_POINT('',(0.,20.,31.9999992847443));
#1722=CARTESIAN_POINT('',(5.,0.,31.9999992847443));
#1723=CARTESIAN_POINT('',(5.,20.,31.9999992847443));
#1724=CARTESIAN_POINT('',(2.5,-4.93038054742873E-32,31.9999992847443));
#1725=CARTESIAN_POINT('Origin',(5.,5.00000007450581,15.9999992847443));
#1726=CARTESIAN_POINT('',(0.,0.,15.9999992847443));
#1727=CARTESIAN_POINT('',(0.,22.5000000372529,15.9999992847443));
#1728=CARTESIAN_POINT('',(5.,0.,15.9999992847443));
#1729=CARTESIAN_POINT('',(2.5,0.,15.9999992847443));
#1730=CARTESIAN_POINT('',(5.,22.5000000372529,15.9999992847443));
#1731=CARTESIAN_POINT('Origin',(5.,80.,48.0000007152557));
#1732=CARTESIAN_POINT('',(0.,74.9999999254942,48.0000007152557));
#1733=CARTESIAN_POINT('',(0.,80.,48.0000007152557));
#1734=CARTESIAN_POINT('',(0.,60.,48.0000007152557));
#1735=CARTESIAN_POINT('',(5.,74.9999999254942,48.0000007152557));
#1736=CARTESIAN_POINT('',(5.,74.9999999254942,48.0000007152557));
#1737=CARTESIAN_POINT('',(5.,80.,48.0000007152557));
#1738=CARTESIAN_POINT('',(5.,60.,48.0000007152557));
#1739=CARTESIAN_POINT('',(2.5,80.,48.0000007152557));
#1740=CARTESIAN_POINT('Origin',(5.,74.9999999254942,64.0000007152557));
#1741=CARTESIAN_POINT('',(0.,80.,64.0000007152557));
#1742=CARTESIAN_POINT('',(0.,74.9999999254942,64.0000007152557));
#1743=CARTESIAN_POINT('',(0.,57.4999999627471,64.0000007152557));
#1744=CARTESIAN_POINT('',(5.,80.,64.0000007152557));
#1745=CARTESIAN_POINT('',(2.5,80.,64.0000007152557));
#1746=CARTESIAN_POINT('',(5.,74.9999999254942,64.0000007152557));
#1747=CARTESIAN_POINT('',(5.,57.4999999627471,64.0000007152557));
#1748=CARTESIAN_POINT('',(5.,74.9999999254942,64.0000007152557));
#1749=CARTESIAN_POINT('Origin',(5.,74.9999999254942,48.0000007152557));
#1750=CARTESIAN_POINT('',(0.,74.9999999254942,44.0000003576279));
#1751=CARTESIAN_POINT('',(5.,74.9999999254942,44.0000003576279));
#1752=CARTESIAN_POINT('Origin',(5.,0.,64.0000007152557));
#1753=CARTESIAN_POINT('',(0.,5.00000007450581,64.0000007152557));
#1754=CARTESIAN_POINT('',(0.,0.,64.0000007152557));
#1755=CARTESIAN_POINT('',(0.,20.,64.0000007152557));
#1756=CARTESIAN_POINT('',(5.,5.00000007450581,64.0000007152557));
#1757=CARTESIAN_POINT('',(5.,5.00000007450581,64.0000007152557));
#1758=CARTESIAN_POINT('',(5.,0.,64.0000007152557));
#1759=CARTESIAN_POINT('',(5.,20.,64.0000007152557));
#1760=CARTESIAN_POINT('',(2.5,-9.86076142546524E-32,64.0000007152557));
#1761=CARTESIAN_POINT('Origin',(5.,5.00000007450581,48.0000007152557));
#1762=CARTESIAN_POINT('',(0.,0.,48.0000007152557));
#1763=CARTESIAN_POINT('',(0.,5.00000007450581,48.0000007152557));
#1764=CARTESIAN_POINT('',(0.,22.5000000372529,48.0000007152557));
#1765=CARTESIAN_POINT('',(5.,0.,48.0000007152557));
#1766=CARTESIAN_POINT('',(2.5,0.,48.0000007152557));
#1767=CARTESIAN_POINT('',(5.,5.00000007450581,48.0000007152557));
#1768=CARTESIAN_POINT('',(5.,22.5000000372529,48.0000007152557));
#1769=CARTESIAN_POINT('',(5.,5.00000007450581,48.0000007152557));
#1770=CARTESIAN_POINT('Origin',(5.,5.00000007450581,64.0000007152557));
#1771=CARTESIAN_POINT('',(0.,5.00000007450581,52.0000003576279));
#1772=CARTESIAN_POINT('',(5.,5.00000007450581,52.0000003576279));
#1773=CARTESIAN_POINT('Origin',(5.,74.9999999254942,15.9999992847443));
#1774=CARTESIAN_POINT('',(0.,74.9999999254942,31.9999992847443));
#1775=CARTESIAN_POINT('',(0.,74.9999999254942,15.9999992847443));
#1776=CARTESIAN_POINT('',(0.,74.9999999254942,27.9999996423721));
#1777=CARTESIAN_POINT('',(5.,74.9999999254942,31.9999992847443));
#1778=CARTESIAN_POINT('',(5.,74.9999999254942,31.9999992847443));
#1779=CARTESIAN_POINT('',(5.,74.9999999254942,15.9999992847443));
#1780=CARTESIAN_POINT('',(5.,74.9999999254942,27.9999996423721));
#1781=CARTESIAN_POINT('',(5.,74.9999999254942,15.9999992847443));
#1782=CARTESIAN_POINT('Origin',(5.,80.,15.9999992847443));
#1783=CARTESIAN_POINT('',(0.,80.,15.9999992847443));
#1784=CARTESIAN_POINT('',(0.,60.,15.9999992847443));
#1785=CARTESIAN_POINT('',(5.,80.,15.9999992847443));
#1786=CARTESIAN_POINT('',(5.,60.,15.9999992847443));
#1787=CARTESIAN_POINT('',(2.5,80.,15.9999992847443));
#1788=CARTESIAN_POINT('Origin',(5.,74.9999999254942,31.9999992847443));
#1789=CARTESIAN_POINT('',(0.,80.,31.9999992847443));
#1790=CARTESIAN_POINT('',(0.,57.4999999627471,31.9999992847443));
#1791=CARTESIAN_POINT('',(5.,80.,31.9999992847443));
#1792=CARTESIAN_POINT('',(2.5,80.,31.9999992847443));
#1793=CARTESIAN_POINT('',(5.,57.4999999627471,31.9999992847443));
#1794=CARTESIAN_POINT('Origin',(0.,-1.23259516440783E-31,80.));
#1795=CARTESIAN_POINT('',(5.,-1.23259516440783E-31,75.));
#1796=CARTESIAN_POINT('',(5.,-1.23259516440783E-31,80.));
#1797=CARTESIAN_POINT('',(0.,-1.23259516440783E-31,75.));
#1798=CARTESIAN_POINT('',(0.,-1.15555796663234E-31,75.));
#1799=CARTESIAN_POINT('',(0.,-1.23259516440783E-31,80.));
#1800=CARTESIAN_POINT('Origin',(0.,-1.23259516440783E-31,80.));
#1801=CARTESIAN_POINT('',(5.,-1.23259516440783E-31,80.));
#1802=CARTESIAN_POINT('',(0.,-1.23259516440783E-31,80.));
#1803=CARTESIAN_POINT('Origin',(0.,40.,40.));
#1804=CARTESIAN_POINT('',(0.,16.,75.));
#1805=CARTESIAN_POINT('',(0.,20.,75.));
#1806=CARTESIAN_POINT('',(0.,16.,80.));
#1807=CARTESIAN_POINT('',(0.,16.,57.5));
#1808=CARTESIAN_POINT('',(0.,32.,80.));
#1809=CARTESIAN_POINT('',(0.,80.,80.));
#1810=CARTESIAN_POINT('',(0.,32.,75.));
#1811=CARTESIAN_POINT('',(0.,32.,57.5));
#1812=CARTESIAN_POINT('',(0.,48.,75.));
#1813=CARTESIAN_POINT('',(0.,44.,75.));
#1814=CARTESIAN_POINT('',(0.,48.,80.));
#1815=CARTESIAN_POINT('',(0.,48.,60.));
#1816=CARTESIAN_POINT('',(0.,64.,80.));
#1817=CARTESIAN_POINT('',(0.,80.,80.));
#1818=CARTESIAN_POINT('',(0.,64.,75.));
#1819=CARTESIAN_POINT('',(0.,64.,60.));
#1820=CARTESIAN_POINT('',(0.,80.,75.));
#1821=CARTESIAN_POINT('',(0.,52.,75.));
#1822=CARTESIAN_POINT('',(0.,80.,0.));
#1823=CARTESIAN_POINT('',(0.,80.,0.));
#1824=CARTESIAN_POINT('',(0.,80.,5.));
#1825=CARTESIAN_POINT('',(0.,80.,0.));
#1826=CARTESIAN_POINT('',(0.,64.,5.));
#1827=CARTESIAN_POINT('',(0.,60.,5.));
#1828=CARTESIAN_POINT('',(0.,64.,-6.16297582203915E-32));
#1829=CARTESIAN_POINT('',(0.,64.,22.5));
#1830=CARTESIAN_POINT('',(0.,48.,-6.16297582203915E-32));
#1831=CARTESIAN_POINT('',(0.,0.,0.));
#1832=CARTESIAN_POINT('',(0.,48.,5.));
#1833=CARTESIAN_POINT('',(0.,48.,22.5));
#1834=CARTESIAN_POINT('',(0.,32.,5.));
#1835=CARTESIAN_POINT('',(0.,36.,5.));
#1836=CARTESIAN_POINT('',(0.,32.,0.));
#1837=CARTESIAN_POINT('',(0.,32.,20.));
#1838=CARTESIAN_POINT('',(0.,16.,0.));
#1839=CARTESIAN_POINT('',(0.,0.,0.));
#1840=CARTESIAN_POINT('',(0.,16.,5.));
#1841=CARTESIAN_POINT('',(0.,16.,20.));
#1842=CARTESIAN_POINT('',(0.,0.,5.));
#1843=CARTESIAN_POINT('',(0.,28.,5.));
#1844=CARTESIAN_POINT('',(0.,-1.23259516440783E-31,80.));
#1845=CARTESIAN_POINT('',(0.,53.675,15.78));
#1846=CARTESIAN_POINT('Origin',(0.,55.75,15.78));
#1847=CARTESIAN_POINT('',(0.,63.175,64.22));
#1848=CARTESIAN_POINT('Origin',(0.,65.25,64.22));
#1849=CARTESIAN_POINT('',(0.,22.175,64.22));
#1850=CARTESIAN_POINT('Origin',(0.,24.25,64.22));
#1851=CARTESIAN_POINT('',(0.,12.675,64.22));
#1852=CARTESIAN_POINT('Origin',(0.,14.75,64.22));
#1853=CARTESIAN_POINT('',(0.,53.675,64.22));
#1854=CARTESIAN_POINT('Origin',(0.,55.75,64.22));
#1855=CARTESIAN_POINT('',(0.,22.175,15.78));
#1856=CARTESIAN_POINT('Origin',(0.,24.25,15.78));
#1857=CARTESIAN_POINT('',(0.,12.675,15.78));
#1858=CARTESIAN_POINT('Origin',(0.,14.75,15.78));
#1859=CARTESIAN_POINT('',(0.,63.175,15.78));
#1860=CARTESIAN_POINT('Origin',(0.,65.25,15.78));
#1861=CARTESIAN_POINT('Origin',(0.,80.,0.));
#1862=CARTESIAN_POINT('',(5.,80.,5.));
#1863=CARTESIAN_POINT('',(5.,80.,0.));
#1864=CARTESIAN_POINT('',(0.,80.,5.));
#1865=CARTESIAN_POINT('Origin',(0.,80.,0.));
#1866=CARTESIAN_POINT('',(5.,80.,0.));
#1867=CARTESIAN_POINT('Origin',(5.,32.,75.));
#1868=CARTESIAN_POINT('',(5.,32.,80.));
#1869=CARTESIAN_POINT('',(2.5,32.,80.));
#1870=CARTESIAN_POINT('',(5.,32.,75.));
#1871=CARTESIAN_POINT('',(5.,32.,57.5));
#1872=CARTESIAN_POINT('',(5.,32.,75.));
#1873=CARTESIAN_POINT('Origin',(5.,48.,75.));
#1874=CARTESIAN_POINT('',(5.,48.,75.));
#1875=CARTESIAN_POINT('',(5.,44.,75.));
#1876=CARTESIAN_POINT('',(5.,48.,75.));
#1877=CARTESIAN_POINT('Origin',(5.,48.,80.));
#1878=CARTESIAN_POINT('',(5.,48.,80.));
#1879=CARTESIAN_POINT('',(5.,48.,60.));
#1880=CARTESIAN_POINT('',(2.5,48.,80.));
#1881=CARTESIAN_POINT('Origin',(5.,32.,5.));
#1882=CARTESIAN_POINT('',(5.,48.,5.));
#1883=CARTESIAN_POINT('',(5.,48.,5.));
#1884=CARTESIAN_POINT('',(5.,32.,5.));
#1885=CARTESIAN_POINT('',(5.,36.,5.));
#1886=CARTESIAN_POINT('',(5.,32.,5.));
#1887=CARTESIAN_POINT('Origin',(5.,32.,0.));
#1888=CARTESIAN_POINT('',(5.,32.,0.));
#1889=CARTESIAN_POINT('',(5.,32.,20.));
#1890=CARTESIAN_POINT('',(2.5,32.,0.));
#1891=CARTESIAN_POINT('Origin',(5.,48.,5.));
#1892=CARTESIAN_POINT('',(5.,48.,-6.16297582203915E-32));
#1893=CARTESIAN_POINT('',(2.5,48.,0.));
#1894=CARTESIAN_POINT('',(5.,48.,22.5));
#1895=CARTESIAN_POINT('Origin',(0.,80.,80.));
#1896=CARTESIAN_POINT('',(5.,64.,80.));
#1897=CARTESIAN_POINT('',(5.,80.,80.));
#1898=CARTESIAN_POINT('',(0.,64.,80.));
#1899=CARTESIAN_POINT('Origin',(0.,0.,0.));
#1900=CARTESIAN_POINT('',(5.,16.,0.));
#1901=CARTESIAN_POINT('',(5.,0.,0.));
#1902=CARTESIAN_POINT('',(0.,16.,0.));
#1903=CARTESIAN_POINT('Origin',(5.,40.,40.));
#1904=CARTESIAN_POINT('',(5.,0.,5.));
#1905=CARTESIAN_POINT('',(5.,-1.23259516440783E-31,80.));
#1906=CARTESIAN_POINT('',(5.,16.,5.));
#1907=CARTESIAN_POINT('',(5.,28.,5.));
#1908=CARTESIAN_POINT('',(5.,16.,20.));
#1909=CARTESIAN_POINT('',(5.,64.,-6.16297582203915E-32));
#1910=CARTESIAN_POINT('',(5.,0.,0.));
#1911=CARTESIAN_POINT('',(5.,64.,5.));
#1912=CARTESIAN_POINT('',(5.,64.,22.5));
#1913=CARTESIAN_POINT('',(5.,60.,5.));
#1914=CARTESIAN_POINT('',(5.,80.,75.));
#1915=CARTESIAN_POINT('',(5.,80.,0.));
#1916=CARTESIAN_POINT('',(5.,64.,75.));
#1917=CARTESIAN_POINT('',(5.,52.,75.));
#1918=CARTESIAN_POINT('',(5.,64.,60.));
#1919=CARTESIAN_POINT('',(5.,16.,80.));
#1920=CARTESIAN_POINT('',(5.,80.,80.));
#1921=CARTESIAN_POINT('',(5.,16.,75.));
#1922=CARTESIAN_POINT('',(5.,16.,57.5));
#1923=CARTESIAN_POINT('',(5.,20.,75.));
#1924=CARTESIAN_POINT('',(5.,63.175,15.78));
#1925=CARTESIAN_POINT('Origin',(5.,65.25,15.78));
#1926=CARTESIAN_POINT('',(5.,12.675,15.78));
#1927=CARTESIAN_POINT('Origin',(5.,14.75,15.78));
#1928=CARTESIAN_POINT('',(5.,22.175,15.78));
#1929=CARTESIAN_POINT('Origin',(5.,24.25,15.78));
#1930=CARTESIAN_POINT('',(5.,53.675,64.22));
#1931=CARTESIAN_POINT('Origin',(5.,55.75,64.22));
#1932=CARTESIAN_POINT('',(5.,12.675,64.22));
#1933=CARTESIAN_POINT('Origin',(5.,14.75,64.22));
#1934=CARTESIAN_POINT('',(5.,22.175,64.22));
#1935=CARTESIAN_POINT('Origin',(5.,24.25,64.22));
#1936=CARTESIAN_POINT('',(5.,63.175,64.22));
#1937=CARTESIAN_POINT('Origin',(5.,65.25,64.22));
#1938=CARTESIAN_POINT('',(5.,53.675,15.78));
#1939=CARTESIAN_POINT('Origin',(5.,55.75,15.78));
#1940=CARTESIAN_POINT('Origin',(0.,0.,75.));
#1941=CARTESIAN_POINT('',(0.,16.,75.));
#1942=CARTESIAN_POINT('Origin',(0.,16.,75.));
#1943=CARTESIAN_POINT('',(0.,16.,80.));
#1944=CARTESIAN_POINT('Origin',(0.,80.,5.));
#1945=CARTESIAN_POINT('',(0.,64.,5.));
#1946=CARTESIAN_POINT('Origin',(0.,64.,5.));
#1947=CARTESIAN_POINT('',(0.,64.,0.));
#1948=CARTESIAN_POINT('Origin',(0.,64.,75.));
#1949=CARTESIAN_POINT('',(0.,80.,75.));
#1950=CARTESIAN_POINT('',(0.,64.,75.));
#1951=CARTESIAN_POINT('Origin',(0.,64.,80.));
#1952=CARTESIAN_POINT('Origin',(0.,16.,5.));
#1953=CARTESIAN_POINT('',(0.,0.,5.));
#1954=CARTESIAN_POINT('',(0.,16.,5.));
#1955=CARTESIAN_POINT('Origin',(0.,16.,0.));
#1956=CARTESIAN_POINT('Origin',(0.,80.,0.));
#1957=CARTESIAN_POINT('Origin',(0.,0.,0.));
#1958=CARTESIAN_POINT('Origin',(0.,55.75,15.78));
#1959=CARTESIAN_POINT('',(0.,53.675,15.78));
#1960=CARTESIAN_POINT('Origin',(0.,65.25,64.22));
#1961=CARTESIAN_POINT('',(0.,63.175,64.22));
#1962=CARTESIAN_POINT('Origin',(0.,24.25,64.22));
#1963=CARTESIAN_POINT('',(0.,22.175,64.22));
#1964=CARTESIAN_POINT('Origin',(0.,14.75,64.22));
#1965=CARTESIAN_POINT('',(0.,12.675,64.22));
#1966=CARTESIAN_POINT('Origin',(0.,55.75,64.22));
#1967=CARTESIAN_POINT('',(0.,53.675,64.22));
#1968=CARTESIAN_POINT('Origin',(0.,24.25,15.78));
#1969=CARTESIAN_POINT('',(0.,22.175,15.78));
#1970=CARTESIAN_POINT('Origin',(0.,14.75,15.78));
#1971=CARTESIAN_POINT('',(0.,12.675,15.78));
#1972=CARTESIAN_POINT('Origin',(0.,65.25,15.78));
#1973=CARTESIAN_POINT('',(0.,63.175,15.78));
#1974=CARTESIAN_POINT('Origin',(0.,80.,80.));
#1975=CARTESIAN_POINT('Origin',(0.,-1.23259516440783E-31,80.));
#1976=UNCERTAINTY_MEASURE_WITH_UNIT(LENGTH_MEASURE(0.01),#1980,
'DISTANCE_ACCURACY_VALUE',
'Maximum model space distance between geometric entities at asserted c
onnectivities');
#1977=UNCERTAINTY_MEASURE_WITH_UNIT(LENGTH_MEASURE(0.01),#1980,
'DISTANCE_ACCURACY_VALUE',
'Maximum model space distance between geometric entities at asserted c
onnectivities');
#1978=(
GEOMETRIC_REPRESENTATION_CONTEXT(3)
GLOBAL_UNCERTAINTY_ASSIGNED_CONTEXT((#1976))
GLOBAL_UNIT_ASSIGNED_CONTEXT((#1980,#1982,#1983))
REPRESENTATION_CONTEXT('','3D')
);
#1979=(
GEOMETRIC_REPRESENTATION_CONTEXT(3)
GLOBAL_UNCERTAINTY_ASSIGNED_CONTEXT((#1977))
GLOBAL_UNIT_ASSIGNED_CONTEXT((#1980,#1982,#1983))
REPRESENTATION_CONTEXT('','3D')
);
#1980=(
LENGTH_UNIT()
NAMED_UNIT(*)
SI_UNIT(.MILLI.,.METRE.)
);
#1981=(
LENGTH_UNIT()
NAMED_UNIT(*)
SI_UNIT($,.METRE.)
);
#1982=(
NAMED_UNIT(*)
PLANE_ANGLE_UNIT()
SI_UNIT($,.RADIAN.)
);
#1983=(
NAMED_UNIT(*)
SI_UNIT($,.STERADIAN.)
SOLID_ANGLE_UNIT()
);
#1984=SHAPE_DEFINITION_REPRESENTATION(#1985,#1986);
#1985=PRODUCT_DEFINITION_SHAPE('',$,#1988);
#1986=SHAPE_REPRESENTATION('',(#1244),#1978);
#1987=PRODUCT_DEFINITION_CONTEXT('part definition',#1992,'design');
#1988=PRODUCT_DEFINITION('Servo Plate','Servo Plate v17',#1989,#1987);
#1989=PRODUCT_DEFINITION_FORMATION('',$,#1994);
#1990=PRODUCT_RELATED_PRODUCT_CATEGORY('Servo Plate v17',
'Servo Plate v17',(#1994));
#1991=APPLICATION_PROTOCOL_DEFINITION('international standard',
'automotive_design',2009,#1992);
#1992=APPLICATION_CONTEXT(
'Core Data for Automotive Mechanical Design Process');
#1993=PRODUCT_CONTEXT('part definition',#1992,'mechanical');
#1994=PRODUCT('Servo Plate','Servo Plate v17',$,(#1993));
#1995=PRESENTATION_STYLE_ASSIGNMENT((#1996));
#1996=SURFACE_STYLE_USAGE(.BOTH.,#1997);
#1997=SURFACE_SIDE_STYLE('',(#1998));
#1998=SURFACE_STYLE_FILL_AREA(#1999);
#1999=FILL_AREA_STYLE('Steel - Satin',(#2000));
#2000=FILL_AREA_STYLE_COLOUR('Steel - Satin',#2001);
#2001=COLOUR_RGB('Steel - Satin',0.627450980392157,0.627450980392157,0.627450980392157);
ENDSEC;
END-ISO-10303-21;
