ISO-10303-21;
HEADER;
/* Generated by software containing ST-Developer
 * from STEP Tools, Inc. (www.steptools.com) 
 */

FILE_DESCRIPTION(
/* description */ (''),
/* implementation_level */ '2;1');

FILE_NAME(
/* name */ 'LJoint v4.step',
/* time_stamp */ '2025-04-15T18:50:18+05:30',
/* author */ (''),
/* organization */ (''),
/* preprocessor_version */ 'ST-DEVELOPER v20.1',
/* originating_system */ 'Autodesk Translation Framework v14.4.0.0',
/* authorisation */ '');

FILE_SCHEMA (('AUTOMOTIVE_DESIGN { 1 0 10303 214 3 1 1 }'));
ENDSEC;

DATA;
#10=MECHANICAL_DESIGN_GEOMETRIC_PRESENTATION_REPRESENTATION('',(#13),#888);
#11=SHAPE_REPRESENTATION_RELATIONSHIP('SRR','None',#895,#12);
#12=ADVANCED_BREP_SHAPE_REPRESENTATION('',(#14),#887);
#13=STYLED_ITEM('',(#904),#14);
#14=MANIFOLD_SOLID_BREP('Body1',#544);
#15=CYLINDRICAL_SURFACE('',#585,1.75);
#16=CYLINDRICAL_SURFACE('',#587,1.75);
#17=CYLINDRICAL_SURFACE('',#594,1.75);
#18=CYLINDRICAL_SURFACE('',#595,1.75);
#19=FACE_BOUND('',#72,.T.);
#20=FACE_BOUND('',#75,.T.);
#21=FACE_BOUND('',#87,.T.);
#22=FACE_BOUND('',#89,.T.);
#23=FACE_BOUND('',#97,.T.);
#24=FACE_BOUND('',#98,.T.);
#25=FACE_BOUND('',#100,.T.);
#26=FACE_BOUND('',#101,.T.);
#27=CIRCLE('',#564,1.75);
#28=CIRCLE('',#567,1.75);
#29=CIRCLE('',#579,1.75);
#30=CIRCLE('',#581,1.75);
#31=CIRCLE('',#586,1.75);
#32=CIRCLE('',#588,1.75);
#33=CIRCLE('',#592,1.75);
#34=CIRCLE('',#593,1.75);
#35=FACE_OUTER_BOUND('',#66,.T.);
#36=FACE_OUTER_BOUND('',#67,.T.);
#37=FACE_OUTER_BOUND('',#68,.T.);
#38=FACE_OUTER_BOUND('',#69,.T.);
#39=FACE_OUTER_BOUND('',#70,.T.);
#40=FACE_OUTER_BOUND('',#71,.T.);
#41=FACE_OUTER_BOUND('',#73,.T.);
#42=FACE_OUTER_BOUND('',#74,.T.);
#43=FACE_OUTER_BOUND('',#76,.T.);
#44=FACE_OUTER_BOUND('',#77,.T.);
#45=FACE_OUTER_BOUND('',#78,.T.);
#46=FACE_OUTER_BOUND('',#79,.T.);
#47=FACE_OUTER_BOUND('',#80,.T.);
#48=FACE_OUTER_BOUND('',#81,.T.);
#49=FACE_OUTER_BOUND('',#82,.T.);
#50=FACE_OUTER_BOUND('',#83,.T.);
#51=FACE_OUTER_BOUND('',#84,.T.);
#52=FACE_OUTER_BOUND('',#85,.T.);
#53=FACE_OUTER_BOUND('',#86,.T.);
#54=FACE_OUTER_BOUND('',#88,.T.);
#55=FACE_OUTER_BOUND('',#90,.T.);
#56=FACE_OUTER_BOUND('',#91,.T.);
#57=FACE_OUTER_BOUND('',#92,.T.);
#58=FACE_OUTER_BOUND('',#93,.T.);
#59=FACE_OUTER_BOUND('',#94,.T.);
#60=FACE_OUTER_BOUND('',#95,.T.);
#61=FACE_OUTER_BOUND('',#96,.T.);
#62=FACE_OUTER_BOUND('',#99,.T.);
#63=FACE_OUTER_BOUND('',#102,.T.);
#64=FACE_OUTER_BOUND('',#103,.T.);
#65=FACE_OUTER_BOUND('',#104,.T.);
#66=EDGE_LOOP('',(#344,#345,#346,#347));
#67=EDGE_LOOP('',(#348,#349,#350));
#68=EDGE_LOOP('',(#351,#352,#353,#354,#355,#356,#357,#358,#359,#360,#361,
#362));
#69=EDGE_LOOP('',(#363,#364,#365,#366));
#70=EDGE_LOOP('',(#367,#368,#369));
#71=EDGE_LOOP('',(#370,#371,#372,#373));
#72=EDGE_LOOP('',(#374));
#73=EDGE_LOOP('',(#375,#376,#377,#378));
#74=EDGE_LOOP('',(#379,#380,#381,#382));
#75=EDGE_LOOP('',(#383));
#76=EDGE_LOOP('',(#384,#385,#386,#387));
#77=EDGE_LOOP('',(#388,#389,#390));
#78=EDGE_LOOP('',(#391,#392,#393,#394,#395,#396,#397,#398,#399,#400,#401,
#402));
#79=EDGE_LOOP('',(#403,#404,#405,#406));
#80=EDGE_LOOP('',(#407,#408,#409));
#81=EDGE_LOOP('',(#410,#411,#412,#413));
#82=EDGE_LOOP('',(#414,#415,#416));
#83=EDGE_LOOP('',(#417,#418,#419));
#84=EDGE_LOOP('',(#420,#421,#422,#423));
#85=EDGE_LOOP('',(#424,#425,#426,#427));
#86=EDGE_LOOP('',(#428,#429,#430,#431));
#87=EDGE_LOOP('',(#432));
#88=EDGE_LOOP('',(#433,#434,#435,#436));
#89=EDGE_LOOP('',(#437));
#90=EDGE_LOOP('',(#438,#439,#440));
#91=EDGE_LOOP('',(#441,#442,#443,#444));
#92=EDGE_LOOP('',(#445,#446,#447));
#93=EDGE_LOOP('',(#448,#449,#450,#451));
#94=EDGE_LOOP('',(#452,#453,#454,#455));
#95=EDGE_LOOP('',(#456,#457,#458,#459,#460));
#96=EDGE_LOOP('',(#461,#462,#463,#464));
#97=EDGE_LOOP('',(#465));
#98=EDGE_LOOP('',(#466));
#99=EDGE_LOOP('',(#467,#468,#469,#470));
#100=EDGE_LOOP('',(#471));
#101=EDGE_LOOP('',(#472));
#102=EDGE_LOOP('',(#473,#474,#475,#476));
#103=EDGE_LOOP('',(#477,#478,#479,#480));
#104=EDGE_LOOP('',(#481,#482,#483,#484,#485));
#105=LINE('',#744,#168);
#106=LINE('',#746,#169);
#107=LINE('',#748,#170);
#108=LINE('',#749,#171);
#109=LINE('',#752,#172);
#110=LINE('',#753,#173);
#111=LINE('',#756,#174);
#112=LINE('',#758,#175);
#113=LINE('',#760,#176);
#114=LINE('',#762,#177);
#115=LINE('',#764,#178);
#116=LINE('',#766,#179);
#117=LINE('',#768,#180);
#118=LINE('',#770,#181);
#119=LINE('',#772,#182);
#120=LINE('',#774,#183);
#121=LINE('',#775,#184);
#122=LINE('',#778,#185);
#123=LINE('',#780,#186);
#124=LINE('',#781,#187);
#125=LINE('',#784,#188);
#126=LINE('',#785,#189);
#127=LINE('',#788,#190);
#128=LINE('',#790,#191);
#129=LINE('',#791,#192);
#130=LINE('',#796,#193);
#131=LINE('',#797,#194);
#132=LINE('',#800,#195);
#133=LINE('',#801,#196);
#134=LINE('',#806,#197);
#135=LINE('',#807,#198);
#136=LINE('',#808,#199);
#137=LINE('',#810,#200);
#138=LINE('',#813,#201);
#139=LINE('',#815,#202);
#140=LINE('',#817,#203);
#141=LINE('',#818,#204);
#142=LINE('',#820,#205);
#143=LINE('',#822,#206);
#144=LINE('',#823,#207);
#145=LINE('',#825,#208);
#146=LINE('',#826,#209);
#147=LINE('',#829,#210);
#148=LINE('',#830,#211);
#149=LINE('',#832,#212);
#150=LINE('',#833,#213);
#151=LINE('',#837,#214);
#152=LINE('',#838,#215);
#153=LINE('',#841,#216);
#154=LINE('',#842,#217);
#155=LINE('',#845,#218);
#156=LINE('',#846,#219);
#157=LINE('',#848,#220);
#158=LINE('',#852,#221);
#159=LINE('',#860,#222);
#160=LINE('',#864,#223);
#161=LINE('',#868,#224);
#162=LINE('',#869,#225);
#163=LINE('',#872,#226);
#164=LINE('',#873,#227);
#165=LINE('',#875,#228);
#166=LINE('',#881,#229);
#167=LINE('',#883,#230);
#168=VECTOR('',#601,10.);
#169=VECTOR('',#602,10.);
#170=VECTOR('',#603,10.);
#171=VECTOR('',#604,10.);
#172=VECTOR('',#607,10.);
#173=VECTOR('',#608,10.);
#174=VECTOR('',#611,10.);
#175=VECTOR('',#612,10.);
#176=VECTOR('',#613,10.);
#177=VECTOR('',#614,10.);
#178=VECTOR('',#615,10.);
#179=VECTOR('',#616,10.);
#180=VECTOR('',#617,10.);
#181=VECTOR('',#618,10.);
#182=VECTOR('',#619,10.);
#183=VECTOR('',#620,10.);
#184=VECTOR('',#621,10.);
#185=VECTOR('',#624,10.);
#186=VECTOR('',#625,10.);
#187=VECTOR('',#626,10.);
#188=VECTOR('',#629,10.);
#189=VECTOR('',#630,10.);
#190=VECTOR('',#633,10.);
#191=VECTOR('',#634,10.);
#192=VECTOR('',#635,10.);
#193=VECTOR('',#640,10.);
#194=VECTOR('',#641,10.);
#195=VECTOR('',#644,10.);
#196=VECTOR('',#645,10.);
#197=VECTOR('',#650,10.);
#198=VECTOR('',#651,10.);
#199=VECTOR('',#652,10.);
#200=VECTOR('',#655,10.);
#201=VECTOR('',#658,10.);
#202=VECTOR('',#659,10.);
#203=VECTOR('',#660,10.);
#204=VECTOR('',#661,10.);
#205=VECTOR('',#662,10.);
#206=VECTOR('',#663,10.);
#207=VECTOR('',#664,10.);
#208=VECTOR('',#667,10.);
#209=VECTOR('',#668,10.);
#210=VECTOR('',#671,10.);
#211=VECTOR('',#672,10.);
#212=VECTOR('',#675,10.);
#213=VECTOR('',#676,10.);
#214=VECTOR('',#681,10.);
#215=VECTOR('',#682,10.);
#216=VECTOR('',#685,10.);
#217=VECTOR('',#686,10.);
#218=VECTOR('',#689,10.);
#219=VECTOR('',#690,10.);
#220=VECTOR('',#693,10.);
#221=VECTOR('',#698,10.);
#222=VECTOR('',#709,1.75);
#223=VECTOR('',#714,1.75);
#224=VECTOR('',#719,10.);
#225=VECTOR('',#720,10.);
#226=VECTOR('',#723,10.);
#227=VECTOR('',#724,10.);
#228=VECTOR('',#727,10.);
#229=VECTOR('',#734,1.75);
#230=VECTOR('',#737,1.75);
#231=VERTEX_POINT('',#742);
#232=VERTEX_POINT('',#743);
#233=VERTEX_POINT('',#745);
#234=VERTEX_POINT('',#747);
#235=VERTEX_POINT('',#751);
#236=VERTEX_POINT('',#755);
#237=VERTEX_POINT('',#757);
#238=VERTEX_POINT('',#759);
#239=VERTEX_POINT('',#761);
#240=VERTEX_POINT('',#763);
#241=VERTEX_POINT('',#765);
#242=VERTEX_POINT('',#767);
#243=VERTEX_POINT('',#769);
#244=VERTEX_POINT('',#771);
#245=VERTEX_POINT('',#773);
#246=VERTEX_POINT('',#777);
#247=VERTEX_POINT('',#779);
#248=VERTEX_POINT('',#783);
#249=VERTEX_POINT('',#787);
#250=VERTEX_POINT('',#789);
#251=VERTEX_POINT('',#792);
#252=VERTEX_POINT('',#795);
#253=VERTEX_POINT('',#799);
#254=VERTEX_POINT('',#802);
#255=VERTEX_POINT('',#805);
#256=VERTEX_POINT('',#812);
#257=VERTEX_POINT('',#814);
#258=VERTEX_POINT('',#816);
#259=VERTEX_POINT('',#819);
#260=VERTEX_POINT('',#821);
#261=VERTEX_POINT('',#828);
#262=VERTEX_POINT('',#836);
#263=VERTEX_POINT('',#840);
#264=VERTEX_POINT('',#844);
#265=VERTEX_POINT('',#849);
#266=VERTEX_POINT('',#853);
#267=VERTEX_POINT('',#859);
#268=VERTEX_POINT('',#863);
#269=VERTEX_POINT('',#867);
#270=VERTEX_POINT('',#871);
#271=VERTEX_POINT('',#876);
#272=VERTEX_POINT('',#878);
#273=EDGE_CURVE('',#231,#232,#105,.T.);
#274=EDGE_CURVE('',#232,#233,#106,.T.);
#275=EDGE_CURVE('',#233,#234,#107,.T.);
#276=EDGE_CURVE('',#234,#231,#108,.T.);
#277=EDGE_CURVE('',#235,#233,#109,.T.);
#278=EDGE_CURVE('',#234,#235,#110,.T.);
#279=EDGE_CURVE('',#236,#232,#111,.T.);
#280=EDGE_CURVE('',#236,#237,#112,.T.);
#281=EDGE_CURVE('',#237,#238,#113,.T.);
#282=EDGE_CURVE('',#239,#238,#114,.T.);
#283=EDGE_CURVE('',#239,#240,#115,.T.);
#284=EDGE_CURVE('',#241,#240,#116,.T.);
#285=EDGE_CURVE('',#241,#242,#117,.T.);
#286=EDGE_CURVE('',#243,#242,#118,.T.);
#287=EDGE_CURVE('',#243,#244,#119,.T.);
#288=EDGE_CURVE('',#245,#244,#120,.T.);
#289=EDGE_CURVE('',#245,#233,#121,.T.);
#290=EDGE_CURVE('',#238,#246,#122,.T.);
#291=EDGE_CURVE('',#246,#247,#123,.T.);
#292=EDGE_CURVE('',#247,#239,#124,.T.);
#293=EDGE_CURVE('',#248,#247,#125,.T.);
#294=EDGE_CURVE('',#239,#248,#126,.T.);
#295=EDGE_CURVE('',#235,#249,#127,.T.);
#296=EDGE_CURVE('',#249,#250,#128,.T.);
#297=EDGE_CURVE('',#250,#234,#129,.T.);
#298=EDGE_CURVE('',#251,#251,#27,.T.);
#299=EDGE_CURVE('',#252,#248,#130,.T.);
#300=EDGE_CURVE('',#252,#240,#131,.T.);
#301=EDGE_CURVE('',#247,#253,#132,.T.);
#302=EDGE_CURVE('',#253,#252,#133,.T.);
#303=EDGE_CURVE('',#254,#254,#28,.T.);
#304=EDGE_CURVE('',#244,#255,#134,.T.);
#305=EDGE_CURVE('',#255,#250,#135,.T.);
#306=EDGE_CURVE('',#250,#245,#136,.T.);
#307=EDGE_CURVE('',#245,#249,#137,.T.);
#308=EDGE_CURVE('',#256,#255,#138,.T.);
#309=EDGE_CURVE('',#257,#256,#139,.T.);
#310=EDGE_CURVE('',#258,#257,#140,.T.);
#311=EDGE_CURVE('',#253,#258,#141,.T.);
#312=EDGE_CURVE('',#259,#246,#142,.T.);
#313=EDGE_CURVE('',#259,#260,#143,.T.);
#314=EDGE_CURVE('',#260,#231,#144,.T.);
#315=EDGE_CURVE('',#242,#257,#145,.T.);
#316=EDGE_CURVE('',#256,#243,#146,.T.);
#317=EDGE_CURVE('',#261,#256,#147,.T.);
#318=EDGE_CURVE('',#243,#261,#148,.T.);
#319=EDGE_CURVE('',#240,#253,#149,.T.);
#320=EDGE_CURVE('',#258,#241,#150,.T.);
#321=EDGE_CURVE('',#262,#242,#151,.T.);
#322=EDGE_CURVE('',#257,#262,#152,.T.);
#323=EDGE_CURVE('',#255,#263,#153,.T.);
#324=EDGE_CURVE('',#263,#261,#154,.T.);
#325=EDGE_CURVE('',#262,#264,#155,.T.);
#326=EDGE_CURVE('',#264,#258,#156,.T.);
#327=EDGE_CURVE('',#263,#244,#157,.T.);
#328=EDGE_CURVE('',#265,#265,#29,.T.);
#329=EDGE_CURVE('',#241,#264,#158,.T.);
#330=EDGE_CURVE('',#266,#266,#30,.T.);
#331=EDGE_CURVE('',#266,#267,#159,.T.);
#332=EDGE_CURVE('',#267,#267,#31,.T.);
#333=EDGE_CURVE('',#265,#268,#160,.T.);
#334=EDGE_CURVE('',#268,#268,#32,.T.);
#335=EDGE_CURVE('',#237,#269,#161,.T.);
#336=EDGE_CURVE('',#269,#259,#162,.T.);
#337=EDGE_CURVE('',#270,#236,#163,.T.);
#338=EDGE_CURVE('',#269,#270,#164,.T.);
#339=EDGE_CURVE('',#260,#270,#165,.T.);
#340=EDGE_CURVE('',#271,#271,#33,.T.);
#341=EDGE_CURVE('',#272,#272,#34,.T.);
#342=EDGE_CURVE('',#254,#272,#166,.T.);
#343=EDGE_CURVE('',#251,#271,#167,.T.);
#344=ORIENTED_EDGE('',*,*,#273,.T.);
#345=ORIENTED_EDGE('',*,*,#274,.T.);
#346=ORIENTED_EDGE('',*,*,#275,.T.);
#347=ORIENTED_EDGE('',*,*,#276,.T.);
#348=ORIENTED_EDGE('',*,*,#275,.F.);
#349=ORIENTED_EDGE('',*,*,#277,.F.);
#350=ORIENTED_EDGE('',*,*,#278,.F.);
#351=ORIENTED_EDGE('',*,*,#274,.F.);
#352=ORIENTED_EDGE('',*,*,#279,.F.);
#353=ORIENTED_EDGE('',*,*,#280,.T.);
#354=ORIENTED_EDGE('',*,*,#281,.T.);
#355=ORIENTED_EDGE('',*,*,#282,.F.);
#356=ORIENTED_EDGE('',*,*,#283,.T.);
#357=ORIENTED_EDGE('',*,*,#284,.F.);
#358=ORIENTED_EDGE('',*,*,#285,.T.);
#359=ORIENTED_EDGE('',*,*,#286,.F.);
#360=ORIENTED_EDGE('',*,*,#287,.T.);
#361=ORIENTED_EDGE('',*,*,#288,.F.);
#362=ORIENTED_EDGE('',*,*,#289,.T.);
#363=ORIENTED_EDGE('',*,*,#290,.T.);
#364=ORIENTED_EDGE('',*,*,#291,.T.);
#365=ORIENTED_EDGE('',*,*,#292,.T.);
#366=ORIENTED_EDGE('',*,*,#282,.T.);
#367=ORIENTED_EDGE('',*,*,#292,.F.);
#368=ORIENTED_EDGE('',*,*,#293,.F.);
#369=ORIENTED_EDGE('',*,*,#294,.F.);
#370=ORIENTED_EDGE('',*,*,#278,.T.);
#371=ORIENTED_EDGE('',*,*,#295,.T.);
#372=ORIENTED_EDGE('',*,*,#296,.T.);
#373=ORIENTED_EDGE('',*,*,#297,.T.);
#374=ORIENTED_EDGE('',*,*,#298,.T.);
#375=ORIENTED_EDGE('',*,*,#294,.T.);
#376=ORIENTED_EDGE('',*,*,#299,.F.);
#377=ORIENTED_EDGE('',*,*,#300,.T.);
#378=ORIENTED_EDGE('',*,*,#283,.F.);
#379=ORIENTED_EDGE('',*,*,#293,.T.);
#380=ORIENTED_EDGE('',*,*,#301,.T.);
#381=ORIENTED_EDGE('',*,*,#302,.T.);
#382=ORIENTED_EDGE('',*,*,#299,.T.);
#383=ORIENTED_EDGE('',*,*,#303,.T.);
#384=ORIENTED_EDGE('',*,*,#304,.T.);
#385=ORIENTED_EDGE('',*,*,#305,.T.);
#386=ORIENTED_EDGE('',*,*,#306,.T.);
#387=ORIENTED_EDGE('',*,*,#288,.T.);
#388=ORIENTED_EDGE('',*,*,#306,.F.);
#389=ORIENTED_EDGE('',*,*,#296,.F.);
#390=ORIENTED_EDGE('',*,*,#307,.F.);
#391=ORIENTED_EDGE('',*,*,#276,.F.);
#392=ORIENTED_EDGE('',*,*,#297,.F.);
#393=ORIENTED_EDGE('',*,*,#305,.F.);
#394=ORIENTED_EDGE('',*,*,#308,.F.);
#395=ORIENTED_EDGE('',*,*,#309,.F.);
#396=ORIENTED_EDGE('',*,*,#310,.F.);
#397=ORIENTED_EDGE('',*,*,#311,.F.);
#398=ORIENTED_EDGE('',*,*,#301,.F.);
#399=ORIENTED_EDGE('',*,*,#291,.F.);
#400=ORIENTED_EDGE('',*,*,#312,.F.);
#401=ORIENTED_EDGE('',*,*,#313,.T.);
#402=ORIENTED_EDGE('',*,*,#314,.T.);
#403=ORIENTED_EDGE('',*,*,#315,.T.);
#404=ORIENTED_EDGE('',*,*,#309,.T.);
#405=ORIENTED_EDGE('',*,*,#316,.T.);
#406=ORIENTED_EDGE('',*,*,#286,.T.);
#407=ORIENTED_EDGE('',*,*,#316,.F.);
#408=ORIENTED_EDGE('',*,*,#317,.F.);
#409=ORIENTED_EDGE('',*,*,#318,.F.);
#410=ORIENTED_EDGE('',*,*,#319,.T.);
#411=ORIENTED_EDGE('',*,*,#311,.T.);
#412=ORIENTED_EDGE('',*,*,#320,.T.);
#413=ORIENTED_EDGE('',*,*,#284,.T.);
#414=ORIENTED_EDGE('',*,*,#319,.F.);
#415=ORIENTED_EDGE('',*,*,#300,.F.);
#416=ORIENTED_EDGE('',*,*,#302,.F.);
#417=ORIENTED_EDGE('',*,*,#315,.F.);
#418=ORIENTED_EDGE('',*,*,#321,.F.);
#419=ORIENTED_EDGE('',*,*,#322,.F.);
#420=ORIENTED_EDGE('',*,*,#317,.T.);
#421=ORIENTED_EDGE('',*,*,#308,.T.);
#422=ORIENTED_EDGE('',*,*,#323,.T.);
#423=ORIENTED_EDGE('',*,*,#324,.T.);
#424=ORIENTED_EDGE('',*,*,#322,.T.);
#425=ORIENTED_EDGE('',*,*,#325,.T.);
#426=ORIENTED_EDGE('',*,*,#326,.T.);
#427=ORIENTED_EDGE('',*,*,#310,.T.);
#428=ORIENTED_EDGE('',*,*,#318,.T.);
#429=ORIENTED_EDGE('',*,*,#324,.F.);
#430=ORIENTED_EDGE('',*,*,#327,.T.);
#431=ORIENTED_EDGE('',*,*,#287,.F.);
#432=ORIENTED_EDGE('',*,*,#328,.T.);
#433=ORIENTED_EDGE('',*,*,#321,.T.);
#434=ORIENTED_EDGE('',*,*,#285,.F.);
#435=ORIENTED_EDGE('',*,*,#329,.T.);
#436=ORIENTED_EDGE('',*,*,#325,.F.);
#437=ORIENTED_EDGE('',*,*,#330,.T.);
#438=ORIENTED_EDGE('',*,*,#304,.F.);
#439=ORIENTED_EDGE('',*,*,#327,.F.);
#440=ORIENTED_EDGE('',*,*,#323,.F.);
#441=ORIENTED_EDGE('',*,*,#277,.T.);
#442=ORIENTED_EDGE('',*,*,#289,.F.);
#443=ORIENTED_EDGE('',*,*,#307,.T.);
#444=ORIENTED_EDGE('',*,*,#295,.F.);
#445=ORIENTED_EDGE('',*,*,#320,.F.);
#446=ORIENTED_EDGE('',*,*,#326,.F.);
#447=ORIENTED_EDGE('',*,*,#329,.F.);
#448=ORIENTED_EDGE('',*,*,#330,.F.);
#449=ORIENTED_EDGE('',*,*,#331,.T.);
#450=ORIENTED_EDGE('',*,*,#332,.F.);
#451=ORIENTED_EDGE('',*,*,#331,.F.);
#452=ORIENTED_EDGE('',*,*,#328,.F.);
#453=ORIENTED_EDGE('',*,*,#333,.T.);
#454=ORIENTED_EDGE('',*,*,#334,.F.);
#455=ORIENTED_EDGE('',*,*,#333,.F.);
#456=ORIENTED_EDGE('',*,*,#290,.F.);
#457=ORIENTED_EDGE('',*,*,#281,.F.);
#458=ORIENTED_EDGE('',*,*,#335,.T.);
#459=ORIENTED_EDGE('',*,*,#336,.T.);
#460=ORIENTED_EDGE('',*,*,#312,.T.);
#461=ORIENTED_EDGE('',*,*,#337,.F.);
#462=ORIENTED_EDGE('',*,*,#338,.F.);
#463=ORIENTED_EDGE('',*,*,#335,.F.);
#464=ORIENTED_EDGE('',*,*,#280,.F.);
#465=ORIENTED_EDGE('',*,*,#334,.T.);
#466=ORIENTED_EDGE('',*,*,#332,.T.);
#467=ORIENTED_EDGE('',*,*,#339,.F.);
#468=ORIENTED_EDGE('',*,*,#313,.F.);
#469=ORIENTED_EDGE('',*,*,#336,.F.);
#470=ORIENTED_EDGE('',*,*,#338,.T.);
#471=ORIENTED_EDGE('',*,*,#340,.T.);
#472=ORIENTED_EDGE('',*,*,#341,.T.);
#473=ORIENTED_EDGE('',*,*,#303,.F.);
#474=ORIENTED_EDGE('',*,*,#342,.T.);
#475=ORIENTED_EDGE('',*,*,#341,.F.);
#476=ORIENTED_EDGE('',*,*,#342,.F.);
#477=ORIENTED_EDGE('',*,*,#298,.F.);
#478=ORIENTED_EDGE('',*,*,#343,.T.);
#479=ORIENTED_EDGE('',*,*,#340,.F.);
#480=ORIENTED_EDGE('',*,*,#343,.F.);
#481=ORIENTED_EDGE('',*,*,#273,.F.);
#482=ORIENTED_EDGE('',*,*,#314,.F.);
#483=ORIENTED_EDGE('',*,*,#339,.T.);
#484=ORIENTED_EDGE('',*,*,#337,.T.);
#485=ORIENTED_EDGE('',*,*,#279,.T.);
#486=PLANE('',#558);
#487=PLANE('',#559);
#488=PLANE('',#560);
#489=PLANE('',#561);
#490=PLANE('',#562);
#491=PLANE('',#563);
#492=PLANE('',#565);
#493=PLANE('',#566);
#494=PLANE('',#568);
#495=PLANE('',#569);
#496=PLANE('',#570);
#497=PLANE('',#571);
#498=PLANE('',#572);
#499=PLANE('',#573);
#500=PLANE('',#574);
#501=PLANE('',#575);
#502=PLANE('',#576);
#503=PLANE('',#577);
#504=PLANE('',#578);
#505=PLANE('',#580);
#506=PLANE('',#582);
#507=PLANE('',#583);
#508=PLANE('',#584);
#509=PLANE('',#589);
#510=PLANE('',#590);
#511=PLANE('',#591);
#512=PLANE('',#596);
#513=ADVANCED_FACE('',(#35),#486,.T.);
#514=ADVANCED_FACE('',(#36),#487,.T.);
#515=ADVANCED_FACE('',(#37),#488,.T.);
#516=ADVANCED_FACE('',(#38),#489,.T.);
#517=ADVANCED_FACE('',(#39),#490,.T.);
#518=ADVANCED_FACE('',(#40,#19),#491,.T.);
#519=ADVANCED_FACE('',(#41),#492,.T.);
#520=ADVANCED_FACE('',(#42,#20),#493,.T.);
#521=ADVANCED_FACE('',(#43),#494,.T.);
#522=ADVANCED_FACE('',(#44),#495,.T.);
#523=ADVANCED_FACE('',(#45),#496,.T.);
#524=ADVANCED_FACE('',(#46),#497,.T.);
#525=ADVANCED_FACE('',(#47),#498,.T.);
#526=ADVANCED_FACE('',(#48),#499,.T.);
#527=ADVANCED_FACE('',(#49),#500,.T.);
#528=ADVANCED_FACE('',(#50),#501,.T.);
#529=ADVANCED_FACE('',(#51),#502,.T.);
#530=ADVANCED_FACE('',(#52),#503,.T.);
#531=ADVANCED_FACE('',(#53,#21),#504,.T.);
#532=ADVANCED_FACE('',(#54,#22),#505,.T.);
#533=ADVANCED_FACE('',(#55),#506,.T.);
#534=ADVANCED_FACE('',(#56),#507,.T.);
#535=ADVANCED_FACE('',(#57),#508,.T.);
#536=ADVANCED_FACE('',(#58),#15,.F.);
#537=ADVANCED_FACE('',(#59),#16,.F.);
#538=ADVANCED_FACE('',(#60),#509,.T.);
#539=ADVANCED_FACE('',(#61,#23,#24),#510,.T.);
#540=ADVANCED_FACE('',(#62,#25,#26),#511,.F.);
#541=ADVANCED_FACE('',(#63),#17,.F.);
#542=ADVANCED_FACE('',(#64),#18,.F.);
#543=ADVANCED_FACE('',(#65),#512,.T.);
#544=CLOSED_SHELL('',(#513,#514,#515,#516,#517,#518,#519,#520,#521,#522,
#523,#524,#525,#526,#527,#528,#529,#530,#531,#532,#533,#534,#535,#536,#537,
#538,#539,#540,#541,#542,#543));
#545=DERIVED_UNIT_ELEMENT(#547,1.);
#546=DERIVED_UNIT_ELEMENT(#890,-3.);
#547=(
MASS_UNIT()
NAMED_UNIT(*)
SI_UNIT(.KILO.,.GRAM.)
);
#548=DERIVED_UNIT((#545,#546));
#549=MEASURE_REPRESENTATION_ITEM('density measure',
POSITIVE_RATIO_MEASURE(7850.),#548);
#550=PROPERTY_DEFINITION_REPRESENTATION(#555,#552);
#551=PROPERTY_DEFINITION_REPRESENTATION(#556,#553);
#552=REPRESENTATION('material name',(#554),#887);
#553=REPRESENTATION('density',(#549),#887);
#554=DESCRIPTIVE_REPRESENTATION_ITEM('Steel','Steel');
#555=PROPERTY_DEFINITION('material property','material name',#897);
#556=PROPERTY_DEFINITION('material property','density of part',#897);
#557=AXIS2_PLACEMENT_3D('',#740,#597,#598);
#558=AXIS2_PLACEMENT_3D('',#741,#599,#600);
#559=AXIS2_PLACEMENT_3D('',#750,#605,#606);
#560=AXIS2_PLACEMENT_3D('',#754,#609,#610);
#561=AXIS2_PLACEMENT_3D('',#776,#622,#623);
#562=AXIS2_PLACEMENT_3D('',#782,#627,#628);
#563=AXIS2_PLACEMENT_3D('',#786,#631,#632);
#564=AXIS2_PLACEMENT_3D('',#793,#636,#637);
#565=AXIS2_PLACEMENT_3D('',#794,#638,#639);
#566=AXIS2_PLACEMENT_3D('',#798,#642,#643);
#567=AXIS2_PLACEMENT_3D('',#803,#646,#647);
#568=AXIS2_PLACEMENT_3D('',#804,#648,#649);
#569=AXIS2_PLACEMENT_3D('',#809,#653,#654);
#570=AXIS2_PLACEMENT_3D('',#811,#656,#657);
#571=AXIS2_PLACEMENT_3D('',#824,#665,#666);
#572=AXIS2_PLACEMENT_3D('',#827,#669,#670);
#573=AXIS2_PLACEMENT_3D('',#831,#673,#674);
#574=AXIS2_PLACEMENT_3D('',#834,#677,#678);
#575=AXIS2_PLACEMENT_3D('',#835,#679,#680);
#576=AXIS2_PLACEMENT_3D('',#839,#683,#684);
#577=AXIS2_PLACEMENT_3D('',#843,#687,#688);
#578=AXIS2_PLACEMENT_3D('',#847,#691,#692);
#579=AXIS2_PLACEMENT_3D('',#850,#694,#695);
#580=AXIS2_PLACEMENT_3D('',#851,#696,#697);
#581=AXIS2_PLACEMENT_3D('',#854,#699,#700);
#582=AXIS2_PLACEMENT_3D('',#855,#701,#702);
#583=AXIS2_PLACEMENT_3D('',#856,#703,#704);
#584=AXIS2_PLACEMENT_3D('',#857,#705,#706);
#585=AXIS2_PLACEMENT_3D('',#858,#707,#708);
#586=AXIS2_PLACEMENT_3D('',#861,#710,#711);
#587=AXIS2_PLACEMENT_3D('',#862,#712,#713);
#588=AXIS2_PLACEMENT_3D('',#865,#715,#716);
#589=AXIS2_PLACEMENT_3D('',#866,#717,#718);
#590=AXIS2_PLACEMENT_3D('',#870,#721,#722);
#591=AXIS2_PLACEMENT_3D('',#874,#725,#726);
#592=AXIS2_PLACEMENT_3D('',#877,#728,#729);
#593=AXIS2_PLACEMENT_3D('',#879,#730,#731);
#594=AXIS2_PLACEMENT_3D('',#880,#732,#733);
#595=AXIS2_PLACEMENT_3D('',#882,#735,#736);
#596=AXIS2_PLACEMENT_3D('',#884,#738,#739);
#597=DIRECTION('axis',(0.,0.,1.));
#598=DIRECTION('refdir',(1.,0.,0.));
#599=DIRECTION('center_axis',(0.,-0.707106781186548,0.707106781186548));
#600=DIRECTION('ref_axis',(1.,0.,0.));
#601=DIRECTION('',(1.57009245868378E-16,0.707106781186548,0.707106781186548));
#602=DIRECTION('',(-1.,0.,0.));
#603=DIRECTION('',(0.,-0.707106781186548,-0.707106781186548));
#604=DIRECTION('',(1.,0.,0.));
#605=DIRECTION('center_axis',(-1.,0.,0.));
#606=DIRECTION('ref_axis',(0.,-1.,0.));
#607=DIRECTION('',(0.,0.,1.));
#608=DIRECTION('',(0.,1.,0.));
#609=DIRECTION('center_axis',(0.,0.,1.));
#610=DIRECTION('ref_axis',(1.,0.,0.));
#611=DIRECTION('',(0.,-1.,0.));
#612=DIRECTION('',(-1.,0.,0.));
#613=DIRECTION('',(0.,-1.,0.));
#614=DIRECTION('',(-1.,0.,0.));
#615=DIRECTION('',(1.,0.,0.));
#616=DIRECTION('',(-1.,0.,0.));
#617=DIRECTION('',(1.,0.,0.));
#618=DIRECTION('',(-1.,0.,0.));
#619=DIRECTION('',(1.,0.,0.));
#620=DIRECTION('',(-1.,0.,0.));
#621=DIRECTION('',(1.,0.,0.));
#622=DIRECTION('center_axis',(0.,-0.707106781186548,0.707106781186548));
#623=DIRECTION('ref_axis',(1.,0.,0.));
#624=DIRECTION('',(0.,-0.707106781186548,-0.707106781186548));
#625=DIRECTION('',(1.,0.,0.));
#626=DIRECTION('',(0.,0.707106781186548,0.707106781186548));
#627=DIRECTION('center_axis',(1.,0.,0.));
#628=DIRECTION('ref_axis',(0.,1.,0.));
#629=DIRECTION('',(0.,-1.,0.));
#630=DIRECTION('',(0.,0.,-1.));
#631=DIRECTION('center_axis',(0.,0.,1.));
#632=DIRECTION('ref_axis',(1.,0.,0.));
#633=DIRECTION('',(-1.,0.,0.));
#634=DIRECTION('',(0.,-1.,0.));
#635=DIRECTION('',(1.,0.,0.));
#636=DIRECTION('center_axis',(0.,0.,-1.));
#637=DIRECTION('ref_axis',(-1.,0.,0.));
#638=DIRECTION('center_axis',(0.,-1.,0.));
#639=DIRECTION('ref_axis',(1.,0.,0.));
#640=DIRECTION('',(-1.,0.,0.));
#641=DIRECTION('',(0.,0.,1.));
#642=DIRECTION('center_axis',(0.,0.,1.));
#643=DIRECTION('ref_axis',(1.,0.,0.));
#644=DIRECTION('',(1.,0.,0.));
#645=DIRECTION('',(0.,1.,0.));
#646=DIRECTION('center_axis',(0.,0.,-1.));
#647=DIRECTION('ref_axis',(-1.,0.,0.));
#648=DIRECTION('center_axis',(0.,-0.707106782942666,0.707106779430429));
#649=DIRECTION('ref_axis',(1.,0.,0.));
#650=DIRECTION('',(0.,-0.707106779430429,-0.707106782942666));
#651=DIRECTION('',(1.,0.,0.));
#652=DIRECTION('',(0.,0.707106779430429,0.707106782942666));
#653=DIRECTION('center_axis',(1.,0.,0.));
#654=DIRECTION('ref_axis',(0.,1.,0.));
#655=DIRECTION('',(0.,0.,-1.));
#656=DIRECTION('center_axis',(0.,-1.,0.));
#657=DIRECTION('ref_axis',(1.,0.,0.));
#658=DIRECTION('',(1.,0.,0.));
#659=DIRECTION('',(1.,0.,0.));
#660=DIRECTION('',(1.,0.,0.));
#661=DIRECTION('',(1.,0.,0.));
#662=DIRECTION('',(0.,0.,1.));
#663=DIRECTION('',(1.,0.,0.));
#664=DIRECTION('',(0.,0.,1.));
#665=DIRECTION('center_axis',(0.,-0.707106782942666,0.707106779430429));
#666=DIRECTION('ref_axis',(1.,0.,0.));
#667=DIRECTION('',(0.,-0.707106779430429,-0.707106782942666));
#668=DIRECTION('',(0.,0.707106779430429,0.707106782942666));
#669=DIRECTION('center_axis',(1.,0.,0.));
#670=DIRECTION('ref_axis',(0.,1.,0.));
#671=DIRECTION('',(0.,-1.,0.));
#672=DIRECTION('',(0.,0.,-1.));
#673=DIRECTION('center_axis',(0.,-0.707106782942666,0.707106779430429));
#674=DIRECTION('ref_axis',(1.,0.,0.));
#675=DIRECTION('',(0.,-0.707106779430429,-0.707106782942666));
#676=DIRECTION('',(0.,0.707106779430429,0.707106782942666));
#677=DIRECTION('center_axis',(-1.,0.,0.));
#678=DIRECTION('ref_axis',(0.,-1.,0.));
#679=DIRECTION('center_axis',(-1.,0.,0.));
#680=DIRECTION('ref_axis',(0.,-1.,0.));
#681=DIRECTION('',(0.,0.,1.));
#682=DIRECTION('',(0.,1.,0.));
#683=DIRECTION('center_axis',(0.,0.,1.));
#684=DIRECTION('ref_axis',(1.,0.,0.));
#685=DIRECTION('',(0.,1.,0.));
#686=DIRECTION('',(-1.,0.,0.));
#687=DIRECTION('center_axis',(0.,0.,1.));
#688=DIRECTION('ref_axis',(1.,0.,0.));
#689=DIRECTION('',(-1.,0.,0.));
#690=DIRECTION('',(0.,-1.,0.));
#691=DIRECTION('center_axis',(0.,-1.,0.));
#692=DIRECTION('ref_axis',(1.,0.,0.));
#693=DIRECTION('',(0.,0.,1.));
#694=DIRECTION('center_axis',(0.,1.,0.));
#695=DIRECTION('ref_axis',(1.,0.,0.));
#696=DIRECTION('center_axis',(0.,-1.,0.));
#697=DIRECTION('ref_axis',(1.,0.,0.));
#698=DIRECTION('',(0.,0.,-1.));
#699=DIRECTION('center_axis',(0.,1.,0.));
#700=DIRECTION('ref_axis',(1.,0.,0.));
#701=DIRECTION('center_axis',(-1.,0.,0.));
#702=DIRECTION('ref_axis',(0.,-1.,0.));
#703=DIRECTION('center_axis',(0.,-1.,0.));
#704=DIRECTION('ref_axis',(1.,0.,0.));
#705=DIRECTION('center_axis',(1.,0.,0.));
#706=DIRECTION('ref_axis',(0.,1.,0.));
#707=DIRECTION('center_axis',(0.,1.,0.));
#708=DIRECTION('ref_axis',(1.,0.,0.));
#709=DIRECTION('',(0.,1.,0.));
#710=DIRECTION('center_axis',(1.73472347597681E-17,-1.,0.));
#711=DIRECTION('ref_axis',(1.,0.,0.));
#712=DIRECTION('center_axis',(0.,1.,0.));
#713=DIRECTION('ref_axis',(1.,0.,0.));
#714=DIRECTION('',(0.,1.,0.));
#715=DIRECTION('center_axis',(1.73472347597681E-17,-1.,0.));
#716=DIRECTION('ref_axis',(1.,0.,0.));
#717=DIRECTION('center_axis',(-1.,0.,0.));
#718=DIRECTION('ref_axis',(0.,-1.,0.));
#719=DIRECTION('',(0.,0.,-1.));
#720=DIRECTION('',(0.,-1.,0.));
#721=DIRECTION('center_axis',(-1.73472347597681E-17,1.,0.));
#722=DIRECTION('ref_axis',(0.,0.,1.));
#723=DIRECTION('',(0.,0.,1.));
#724=DIRECTION('',(1.,1.73472347597681E-17,0.));
#725=DIRECTION('center_axis',(0.,0.,1.));
#726=DIRECTION('ref_axis',(1.,0.,0.));
#727=DIRECTION('',(2.22044604925031E-16,1.,0.));
#728=DIRECTION('center_axis',(0.,0.,1.));
#729=DIRECTION('ref_axis',(-1.,0.,0.));
#730=DIRECTION('center_axis',(0.,0.,1.));
#731=DIRECTION('ref_axis',(-1.,0.,0.));
#732=DIRECTION('center_axis',(0.,0.,-1.));
#733=DIRECTION('ref_axis',(-1.,0.,0.));
#734=DIRECTION('',(0.,0.,-1.));
#735=DIRECTION('center_axis',(0.,0.,-1.));
#736=DIRECTION('ref_axis',(-1.,0.,0.));
#737=DIRECTION('',(0.,0.,-1.));
#738=DIRECTION('center_axis',(1.,-2.22044604925031E-16,0.));
#739=DIRECTION('ref_axis',(2.22044604925031E-16,1.,0.));
#740=CARTESIAN_POINT('',(0.,0.,0.));
#741=CARTESIAN_POINT('Origin',(-8.,-2.,5.));
#742=CARTESIAN_POINT('',(16.,-5.,2.));
#743=CARTESIAN_POINT('',(16.,1.,8.));
#744=CARTESIAN_POINT('',(16.,-4.,3.));
#745=CARTESIAN_POINT('',(15.0000002235174,1.00000001490116,8.));
#746=CARTESIAN_POINT('',(-8.,1.,8.));
#747=CARTESIAN_POINT('',(15.0000002235174,-5.,2.));
#748=CARTESIAN_POINT('',(15.0000002235174,-1.99999999627471,5.00000000372529));
#749=CARTESIAN_POINT('',(-8.,-5.,2.));
#750=CARTESIAN_POINT('Origin',(15.0000002235174,1.00000001490116,2.));
#751=CARTESIAN_POINT('',(15.0000002235174,1.00000001490116,2.));
#752=CARTESIAN_POINT('',(15.0000002235174,1.,1.));
#753=CARTESIAN_POINT('',(15.0000002235174,0.500000007450581,2.));
#754=CARTESIAN_POINT('Origin',(2.22044604925031E-15,2.,8.));
#755=CARTESIAN_POINT('',(16.,3.,8.));
#756=CARTESIAN_POINT('',(16.,-3.49999999627471,8.));
#757=CARTESIAN_POINT('',(-16.,3.,8.));
#758=CARTESIAN_POINT('',(-16.,3.,8.));
#759=CARTESIAN_POINT('',(-16.,1.,8.));
#760=CARTESIAN_POINT('',(-16.,1.,8.));
#761=CARTESIAN_POINT('',(-15.0000002235174,1.00000001490116,8.));
#762=CARTESIAN_POINT('',(-8.,1.,8.));
#763=CARTESIAN_POINT('',(-9.00000011920929,0.999999970197678,8.));
#764=CARTESIAN_POINT('',(16.,1.,8.));
#765=CARTESIAN_POINT('',(-7.00000011920929,0.999999970197678,8.));
#766=CARTESIAN_POINT('',(-8.,0.999999970197678,8.));
#767=CARTESIAN_POINT('',(-1.,0.999999970197678,8.));
#768=CARTESIAN_POINT('',(16.,1.,8.));
#769=CARTESIAN_POINT('',(1.,0.999999970197678,8.));
#770=CARTESIAN_POINT('',(-8.,0.999999970197678,8.));
#771=CARTESIAN_POINT('',(7.00000011920929,0.999999970197678,8.));
#772=CARTESIAN_POINT('',(16.,1.,8.));
#773=CARTESIAN_POINT('',(9.00000011920929,0.999999970197678,8.));
#774=CARTESIAN_POINT('',(-8.,0.999999970197678,8.));
#775=CARTESIAN_POINT('',(16.,1.,8.));
#776=CARTESIAN_POINT('Origin',(-8.,-2.,5.));
#777=CARTESIAN_POINT('',(-16.,-5.,2.));
#778=CARTESIAN_POINT('',(-16.,-1.5,5.5));
#779=CARTESIAN_POINT('',(-15.0000002235174,-5.,2.));
#780=CARTESIAN_POINT('',(-8.,-5.,2.));
#781=CARTESIAN_POINT('',(-15.0000002235174,-3.5,3.5));
#782=CARTESIAN_POINT('Origin',(-15.0000002235174,-5.,2.));
#783=CARTESIAN_POINT('',(-15.0000002235174,1.00000001490116,2.));
#784=CARTESIAN_POINT('',(-15.0000002235174,-2.5,2.));
#785=CARTESIAN_POINT('',(-15.0000002235174,1.,1.));
#786=CARTESIAN_POINT('Origin',(0.,0.,2.));
#787=CARTESIAN_POINT('',(9.00000011920929,0.999999970197678,2.));
#788=CARTESIAN_POINT('',(-8.,1.,2.));
#789=CARTESIAN_POINT('',(9.00000011920929,-5.00000002980232,2.));
#790=CARTESIAN_POINT('',(9.00000011920929,-2.50000001490116,2.));
#791=CARTESIAN_POINT('',(-16.,-5.,2.));
#792=CARTESIAN_POINT('',(13.7500000596046,-1.99999997764826,2.));
#793=CARTESIAN_POINT('Origin',(12.0000000596046,-1.99999997764826,2.));
#794=CARTESIAN_POINT('Origin',(-16.,1.,0.));
#795=CARTESIAN_POINT('',(-9.00000011920929,0.999999970197678,2.));
#796=CARTESIAN_POINT('',(-8.,1.,2.));
#797=CARTESIAN_POINT('',(-9.00000011920929,1.,1.));
#798=CARTESIAN_POINT('Origin',(0.,0.,2.));
#799=CARTESIAN_POINT('',(-9.00000011920929,-5.00000002980232,2.));
#800=CARTESIAN_POINT('',(-16.,-5.,2.));
#801=CARTESIAN_POINT('',(-9.00000011920929,0.499999985098839,2.));
#802=CARTESIAN_POINT('',(-10.25,-1.99999997764826,2.));
#803=CARTESIAN_POINT('Origin',(-12.,-1.99999997764826,2.));
#804=CARTESIAN_POINT('Origin',(-8.,-2.00000001490116,5.));
#805=CARTESIAN_POINT('',(7.00000011920929,-5.00000002980232,2.));
#806=CARTESIAN_POINT('',(7.00000011920929,-2.00000002235174,4.99999999254942));
#807=CARTESIAN_POINT('',(-8.,-5.,2.));
#808=CARTESIAN_POINT('',(9.00000011920929,-3.50000001490116,3.49999999254942));
#809=CARTESIAN_POINT('Origin',(9.00000011920929,-5.00000002980232,2.));
#810=CARTESIAN_POINT('',(9.00000011920929,1.,1.));
#811=CARTESIAN_POINT('Origin',(-16.,-5.,0.));
#812=CARTESIAN_POINT('',(1.,-5.00000002980232,2.));
#813=CARTESIAN_POINT('',(-16.,-5.,2.));
#814=CARTESIAN_POINT('',(-1.,-5.00000002980232,2.));
#815=CARTESIAN_POINT('',(-8.,-5.,2.));
#816=CARTESIAN_POINT('',(-7.00000011920929,-5.00000002980232,2.));
#817=CARTESIAN_POINT('',(-16.,-5.,2.));
#818=CARTESIAN_POINT('',(-8.,-5.,2.));
#819=CARTESIAN_POINT('',(-16.,-5.,0.));
#820=CARTESIAN_POINT('',(-16.,-5.,0.));
#821=CARTESIAN_POINT('',(16.,-5.,0.));
#822=CARTESIAN_POINT('',(-16.,-5.,0.));
#823=CARTESIAN_POINT('',(16.,-5.,0.));
#824=CARTESIAN_POINT('Origin',(-8.,-2.00000001490116,5.));
#825=CARTESIAN_POINT('',(-1.,-2.00000002235174,4.99999999254942));
#826=CARTESIAN_POINT('',(1.,-3.50000001490116,3.49999999254942));
#827=CARTESIAN_POINT('Origin',(1.,-5.00000002980232,2.));
#828=CARTESIAN_POINT('',(1.,0.999999970197678,2.));
#829=CARTESIAN_POINT('',(1.,-2.50000001490116,2.));
#830=CARTESIAN_POINT('',(1.,1.,1.));
#831=CARTESIAN_POINT('Origin',(-8.,-2.00000001490116,5.));
#832=CARTESIAN_POINT('',(-9.00000011920929,-2.00000002235174,4.99999999254942));
#833=CARTESIAN_POINT('',(-7.00000011920929,-3.50000001490116,3.49999999254942));
#834=CARTESIAN_POINT('Origin',(-9.00000011920929,0.999999970197678,2.));
#835=CARTESIAN_POINT('Origin',(-1.,0.999999970197678,2.));
#836=CARTESIAN_POINT('',(-1.,0.999999970197678,2.));
#837=CARTESIAN_POINT('',(-1.,1.,1.));
#838=CARTESIAN_POINT('',(-1.,0.499999985098839,2.));
#839=CARTESIAN_POINT('Origin',(0.,0.,2.));
#840=CARTESIAN_POINT('',(7.00000011920929,0.999999970197678,2.));
#841=CARTESIAN_POINT('',(7.00000011920929,0.499999985098839,2.));
#842=CARTESIAN_POINT('',(-8.,1.,2.));
#843=CARTESIAN_POINT('Origin',(0.,0.,2.));
#844=CARTESIAN_POINT('',(-7.00000011920929,0.999999970197678,2.));
#845=CARTESIAN_POINT('',(-8.,1.,2.));
#846=CARTESIAN_POINT('',(-7.00000011920929,-2.50000001490116,2.));
#847=CARTESIAN_POINT('Origin',(-16.,1.,0.));
#848=CARTESIAN_POINT('',(7.00000011920929,1.,1.));
#849=CARTESIAN_POINT('',(2.25000005960465,1.,5.00000008940697));
#850=CARTESIAN_POINT('Origin',(4.00000005960465,1.,5.00000008940697));
#851=CARTESIAN_POINT('Origin',(-16.,1.,0.));
#852=CARTESIAN_POINT('',(-7.00000011920929,1.,1.));
#853=CARTESIAN_POINT('',(-5.75000005960464,1.,5.00000008940697));
#854=CARTESIAN_POINT('Origin',(-4.00000005960464,1.,5.00000008940697));
#855=CARTESIAN_POINT('Origin',(7.00000011920929,0.999999970197678,2.));
#856=CARTESIAN_POINT('Origin',(-16.,1.,0.));
#857=CARTESIAN_POINT('Origin',(-7.00000011920929,-5.00000002980232,2.));
#858=CARTESIAN_POINT('Origin',(-4.00000005960464,1.,5.00000008940697));
#859=CARTESIAN_POINT('',(-5.75000005960464,3.,5.00000008940697));
#860=CARTESIAN_POINT('',(-5.75000005960464,1.,5.00000008940697));
#861=CARTESIAN_POINT('Origin',(-4.00000005960464,3.,5.00000008940697));
#862=CARTESIAN_POINT('Origin',(4.00000005960465,1.,5.00000008940697));
#863=CARTESIAN_POINT('',(2.25000005960465,3.,5.00000008940697));
#864=CARTESIAN_POINT('',(2.25000005960465,1.,5.00000008940697));
#865=CARTESIAN_POINT('Origin',(4.00000005960465,3.,5.00000008940697));
#866=CARTESIAN_POINT('Origin',(-16.,5.,0.));
#867=CARTESIAN_POINT('',(-16.,3.,0.));
#868=CARTESIAN_POINT('',(-16.,3.,0.5));
#869=CARTESIAN_POINT('',(-16.,5.,0.));
#870=CARTESIAN_POINT('Origin',(1.14491749414469E-15,3.,1.));
#871=CARTESIAN_POINT('',(16.,3.,0.));
#872=CARTESIAN_POINT('',(16.,3.,0.5));
#873=CARTESIAN_POINT('',(5.46437894932694E-16,3.,0.));
#874=CARTESIAN_POINT('Origin',(0.,0.,0.));
#875=CARTESIAN_POINT('',(16.,-5.,0.));
#876=CARTESIAN_POINT('',(13.7500000596046,-1.99999997764826,0.));
#877=CARTESIAN_POINT('Origin',(12.0000000596046,-1.99999997764826,0.));
#878=CARTESIAN_POINT('',(-10.25,-1.99999997764826,0.));
#879=CARTESIAN_POINT('Origin',(-12.,-1.99999997764826,0.));
#880=CARTESIAN_POINT('Origin',(-12.,-1.99999997764826,2.));
#881=CARTESIAN_POINT('',(-10.25,-1.99999997764826,2.));
#882=CARTESIAN_POINT('Origin',(12.0000000596046,-1.99999997764826,2.));
#883=CARTESIAN_POINT('',(13.7500000596046,-1.99999997764826,2.));
#884=CARTESIAN_POINT('Origin',(16.,-5.,0.));
#885=UNCERTAINTY_MEASURE_WITH_UNIT(LENGTH_MEASURE(0.01),#889,
'DISTANCE_ACCURACY_VALUE',
'Maximum model space distance between geometric entities at asserted c
onnectivities');
#886=UNCERTAINTY_MEASURE_WITH_UNIT(LENGTH_MEASURE(0.01),#889,
'DISTANCE_ACCURACY_VALUE',
'Maximum model space distance between geometric entities at asserted c
onnectivities');
#887=(
GEOMETRIC_REPRESENTATION_CONTEXT(3)
GLOBAL_UNCERTAINTY_ASSIGNED_CONTEXT((#885))
GLOBAL_UNIT_ASSIGNED_CONTEXT((#889,#891,#892))
REPRESENTATION_CONTEXT('','3D')
);
#888=(
GEOMETRIC_REPRESENTATION_CONTEXT(3)
GLOBAL_UNCERTAINTY_ASSIGNED_CONTEXT((#886))
GLOBAL_UNIT_ASSIGNED_CONTEXT((#889,#891,#892))
REPRESENTATION_CONTEXT('','3D')
);
#889=(
LENGTH_UNIT()
NAMED_UNIT(*)
SI_UNIT(.MILLI.,.METRE.)
);
#890=(
LENGTH_UNIT()
NAMED_UNIT(*)
SI_UNIT($,.METRE.)
);
#891=(
NAMED_UNIT(*)
PLANE_ANGLE_UNIT()
SI_UNIT($,.RADIAN.)
);
#892=(
NAMED_UNIT(*)
SI_UNIT($,.STERADIAN.)
SOLID_ANGLE_UNIT()
);
#893=SHAPE_DEFINITION_REPRESENTATION(#894,#895);
#894=PRODUCT_DEFINITION_SHAPE('',$,#897);
#895=SHAPE_REPRESENTATION('',(#557),#887);
#896=PRODUCT_DEFINITION_CONTEXT('part definition',#901,'design');
#897=PRODUCT_DEFINITION('LJoint','LJoint v4',#898,#896);
#898=PRODUCT_DEFINITION_FORMATION('',$,#903);
#899=PRODUCT_RELATED_PRODUCT_CATEGORY('LJoint v4','LJoint v4',(#903));
#900=APPLICATION_PROTOCOL_DEFINITION('international standard',
'automotive_design',2009,#901);
#901=APPLICATION_CONTEXT(
'Core Data for Automotive Mechanical Design Process');
#902=PRODUCT_CONTEXT('part definition',#901,'mechanical');
#903=PRODUCT('LJoint','LJoint v4',$,(#902));
#904=PRESENTATION_STYLE_ASSIGNMENT((#905));
#905=SURFACE_STYLE_USAGE(.BOTH.,#906);
#906=SURFACE_SIDE_STYLE('',(#907));
#907=SURFACE_STYLE_FILL_AREA(#908);
#908=FILL_AREA_STYLE('Steel - Satin',(#909));
#909=FILL_AREA_STYLE_COLOUR('Steel - Satin',#910);
#910=COLOUR_RGB('Steel - Satin',0.627450980392157,0.627450980392157,0.627450980392157);
ENDSEC;
END-ISO-10303-21;
